<svg width="52" height="51" viewBox="0 0 52 51" fill="none" xmlns="http://www.w3.org/2000/svg">
<ellipse cx="25.4784" cy="25.5" rx="25.4784" ry="25.5" transform="matrix(1 0 0 -1 0.621094 51)" fill="url(#paint0_linear_88_2707)"/>
<path opacity="0.4" d="M36.0635 19.9267V26.962C36.0635 31.1695 33.6613 32.9726 30.0579 32.9726H18.0603C17.4461 32.9726 16.8592 32.9181 16.3132 32.7951C15.972 32.7405 15.6444 32.6449 15.3441 32.5356C13.2968 31.7706 12.0547 29.9947 12.0547 26.962V19.9267C12.0547 15.7192 14.4569 13.916 18.0603 13.916H30.0579C33.1153 13.916 35.3128 15.2138 35.8997 18.1782C35.9953 18.7246 36.0635 19.2846 36.0635 19.9267Z" fill="#171F32"/>
<path d="M40.158 24.0249V31.0602C40.158 35.2677 37.7558 37.0709 34.1524 37.0709H22.1548C21.1448 37.0709 20.2303 36.9343 19.4386 36.6338C17.8144 36.0327 16.7088 34.7896 16.313 32.7951C16.859 32.9181 17.4459 32.9727 18.0601 32.9727H30.0577C33.661 32.9727 36.0633 31.1695 36.0633 26.962V19.9267C36.0633 19.2846 36.0087 18.7109 35.8995 18.1782C38.4928 18.7246 40.158 20.5551 40.158 24.0249Z" fill="#171F32"/>
<path d="M24.0521 27.0576C26.0422 27.0576 27.6555 25.4429 27.6555 23.4512C27.6555 21.4594 26.0422 19.8447 24.0521 19.8447C22.062 19.8447 20.4487 21.4594 20.4487 23.4512C20.4487 25.4429 22.062 27.0576 24.0521 27.0576Z" fill="#171F32"/>
<path d="M16.2449 20.3775C15.6853 20.3775 15.2212 20.842 15.2212 21.4021V25.5003C15.2212 26.0604 15.6853 26.5248 16.2449 26.5248C16.8045 26.5248 17.2686 26.0604 17.2686 25.5003V21.4021C17.2686 20.842 16.8181 20.3775 16.2449 20.3775Z" fill="#171F32"/>
<path d="M31.846 20.3775C31.2863 20.3775 30.8223 20.842 30.8223 21.4021V25.5003C30.8223 26.0604 31.2863 26.5248 31.846 26.5248C32.4056 26.5248 32.8696 26.0604 32.8696 25.5003V21.4021C32.8696 20.842 32.4192 20.3775 31.846 20.3775Z" fill="#171F32"/>
<defs>
<linearGradient id="paint0_linear_88_2707" x1="25.4784" y1="-27" x2="25.4784" y2="51" gradientUnits="userSpaceOnUse">
<stop stop-color="#95C8C3"/>
<stop offset="1" stop-color="#E3EAFF" stop-opacity="0"/>
</linearGradient>
</defs>
</svg>
