<svg width="52" height="51" viewBox="0 0 52 51" fill="none" xmlns="http://www.w3.org/2000/svg">
<ellipse cx="25.4784" cy="25.5" rx="25.4784" ry="25.5" transform="matrix(1 0 0 -1 0.250977 51)" fill="url(#paint0_linear_88_2713)"/>
<path opacity="0.4" d="M22.9862 33.6694C29.0092 33.6694 33.8919 28.7826 33.8919 22.7545C33.8919 16.7264 29.0092 11.8396 22.9862 11.8396C16.9632 11.8396 12.0806 16.7264 12.0806 22.7545C12.0806 28.7826 16.9632 33.6694 22.9862 33.6694Z" fill="#A5B1CD"/>
<path d="M39.3375 30.9509C39.3375 35.4589 35.6796 39.12 31.1754 39.12C28.3909 39.12 25.9477 37.7266 24.4736 35.6092C30.4247 34.9398 35.1609 30.1995 35.8297 24.2435C37.9453 25.7188 39.3375 28.1641 39.3375 30.9509Z" fill="#171F32"/>
<path d="M24.9787 22.372L21.7029 21.2245C21.3754 21.1152 21.3071 21.0879 21.3071 20.6098C21.3071 20.2546 21.5528 19.9677 21.8667 19.9677H23.9141C24.3509 19.9677 24.7057 20.3639 24.7057 20.8557C24.7057 21.4158 25.1698 21.8802 25.7294 21.8802C26.289 21.8802 26.7531 21.4158 26.7531 20.8557C26.7531 19.2847 25.5383 18.0006 24.0233 17.9323V17.864C24.0233 17.3039 23.5592 16.8394 22.9996 16.8394C22.44 16.8394 21.9759 17.2902 21.9759 17.864V17.9323H21.8531C20.4199 17.9323 19.2461 19.1344 19.2461 20.6234C19.2461 21.9212 19.8194 22.7545 21.0068 23.1643L24.2963 24.3118C24.6238 24.4211 24.6921 24.4484 24.6921 24.9266C24.6921 25.2817 24.4464 25.5686 24.1325 25.5686H22.0851C21.6483 25.5686 21.2935 25.1725 21.2935 24.6807C21.2935 24.1206 20.8294 23.6561 20.2698 23.6561C19.7102 23.6561 19.2461 24.1206 19.2461 24.6807C19.2461 26.2516 20.4609 27.5358 21.9759 27.6041V27.686C21.9759 28.2461 22.44 28.7106 22.9996 28.7106C23.5592 28.7106 24.0233 28.2461 24.0233 27.686V27.6177H24.1461C25.5793 27.6177 26.7531 26.4156 26.7531 24.9266C26.7531 23.6288 26.1662 22.7955 24.9787 22.372Z" fill="#171F32"/>
<defs>
<linearGradient id="paint0_linear_88_2713" x1="25.4784" y1="-32.3304" x2="25.4784" y2="51" gradientUnits="userSpaceOnUse">
<stop stop-color="#95C8C3"/>
<stop offset="1" stop-color="#E3EAFF" stop-opacity="0"/>
</linearGradient>
</defs>
</svg>
