<svg width="18" height="19" viewBox="0 0 18 19" fill="none" xmlns="http://www.w3.org/2000/svg">
<path d="M5.82903 2.32923L6.63678 2.07123C7.39278 1.82973 8.20128 2.22048 8.52528 2.98398L9.17028 4.50498C9.45153 5.16723 9.29553 5.94648 8.78478 6.43098L7.36503 7.77948C7.45253 8.58648 7.72353 9.38073 8.17803 10.1622C8.61023 10.9181 9.18936 11.5799 9.88128 12.1085L11.5883 11.5385C12.2348 11.3232 12.939 11.5715 13.3358 12.1542L14.2598 13.5117C14.7218 14.1897 14.6385 15.1242 14.0663 15.6987L13.4528 16.3145C12.8423 16.9272 11.9708 17.15 11.1638 16.898C9.25978 16.304 7.50903 14.5407 5.91153 11.6082C4.31203 8.67073 3.74753 6.17873 4.21803 4.13223C4.41603 3.27123 5.02953 2.58498 5.83053 2.32923" fill="#171F32"/>
</svg>
