<svg width="44" height="44" viewBox="0 0 44 44" fill="none" xmlns="http://www.w3.org/2000/svg">
<g clip-path="url(#clip0_88_2844)">
<path d="M28.237 11.3527C28.1992 11.232 28.1277 11.1246 28.0309 11.0432C27.934 10.9618 27.8159 10.9098 27.6905 10.8934L24.0928 10.3668L22.4799 7.06613C22.2503 6.60688 21.4947 6.60688 21.2651 7.06613L19.6522 10.3668L16.0476 10.8934C15.9234 10.9109 15.8067 10.9634 15.7111 11.0447C15.6155 11.126 15.5451 11.2328 15.508 11.3527C15.469 11.4717 15.4641 11.5992 15.4938 11.7209C15.5236 11.8425 15.5868 11.9534 15.6764 12.0409L18.2882 14.6059L17.6743 18.2304C17.6514 18.355 17.6647 18.4834 17.7126 18.6007C17.7605 18.7179 17.841 18.8189 17.9445 18.8918C18.0574 18.9762 18.1947 19.0213 18.3356 19.0204C18.4436 19.0204 18.5515 18.9936 18.6526 18.9461L21.8721 17.2384L25.0917 18.9461C25.2043 19.0042 25.3309 19.0298 25.4572 19.0203C25.5836 19.0107 25.7048 18.9662 25.8074 18.8918C26.0102 18.7433 26.1181 18.4869 26.0776 18.2304L25.4568 14.6059L28.0686 12.0409C28.1579 11.9532 28.2209 11.8423 28.2507 11.7207C28.2804 11.5992 28.2757 11.4717 28.237 11.3527ZM24.2612 13.8903C24.183 13.9661 24.1243 14.0597 24.0902 14.1632C24.0561 14.2666 24.0475 14.3768 24.0653 14.4843L24.5108 17.1098L22.1891 15.8744C22.0917 15.8218 21.9828 15.7939 21.8721 15.7933C21.7614 15.7936 21.6525 15.8214 21.5552 15.8744L19.2335 17.1098L19.679 14.4843C19.698 14.3773 19.6907 14.2674 19.6577 14.1639C19.6248 14.0605 19.5672 13.9665 19.49 13.8903L17.5931 12.0271L20.205 11.649C20.3129 11.6323 20.4152 11.5898 20.5033 11.5252C20.5914 11.4606 20.6626 11.3757 20.711 11.2778L21.8721 8.90176L23.0333 11.2778C23.0823 11.3766 23.1546 11.462 23.244 11.5266C23.3333 11.5913 23.437 11.6333 23.5462 11.649L26.1518 12.0271L24.2612 13.8903ZM28.237 11.3527C28.1992 11.232 28.1277 11.1246 28.0309 11.0432C27.934 10.9618 27.8159 10.9098 27.6905 10.8934L24.0928 10.3668L22.4799 7.06613C22.2503 6.60688 21.4947 6.60688 21.2651 7.06613L19.6522 10.3668L16.0476 10.8934C15.9234 10.9109 15.8067 10.9634 15.7111 11.0447C15.6155 11.126 15.5451 11.2328 15.508 11.3527C15.469 11.4717 15.4641 11.5992 15.4938 11.7209C15.5236 11.8425 15.5868 11.9534 15.6764 12.0409L18.2882 14.6059L17.6743 18.2304C17.6514 18.355 17.6647 18.4834 17.7126 18.6007C17.7605 18.7179 17.841 18.8189 17.9445 18.8918C18.0574 18.9762 18.1947 19.0213 18.3356 19.0204C18.4436 19.0204 18.5515 18.9936 18.6526 18.9461L21.8721 17.2384L25.0917 18.9461C25.2043 19.0042 25.3309 19.0298 25.4572 19.0203C25.5836 19.0107 25.7048 18.9662 25.8074 18.8918C26.0102 18.7433 26.1181 18.4869 26.0776 18.2304L25.4568 14.6059L28.0686 12.0409C28.1579 11.9532 28.2209 11.8423 28.2507 11.7207C28.2804 11.5992 28.2757 11.4717 28.237 11.3527ZM24.2612 13.8903C24.183 13.9661 24.1243 14.0597 24.0902 14.1632C24.0561 14.2666 24.0475 14.3768 24.0653 14.4843L24.5108 17.1098L22.1891 15.8744C22.0917 15.8218 21.9828 15.7939 21.8721 15.7933C21.7614 15.7936 21.6525 15.8214 21.5552 15.8744L19.2335 17.1098L19.679 14.4843C19.698 14.3773 19.6907 14.2674 19.6577 14.1639C19.6248 14.0605 19.5672 13.9665 19.49 13.8903L17.5931 12.0271L20.205 11.649C20.3129 11.6323 20.4152 11.5898 20.5033 11.5252C20.5914 11.4606 20.6626 11.3757 20.711 11.2778L21.8721 8.90176L23.0333 11.2778C23.0823 11.3766 23.1546 11.462 23.244 11.5266C23.3333 11.5913 23.437 11.6333 23.5462 11.649L26.1518 12.0271L24.2612 13.8903ZM28.237 11.3527C28.1992 11.232 28.1277 11.1246 28.0309 11.0432C27.934 10.9618 27.8159 10.9098 27.6905 10.8934L24.0928 10.3668L22.4799 7.06613C22.2503 6.60688 21.4947 6.60688 21.2651 7.06613L19.6522 10.3668L16.0476 10.8934C15.9234 10.9109 15.8067 10.9634 15.7111 11.0447C15.6155 11.126 15.5451 11.2328 15.508 11.3527C15.469 11.4717 15.4641 11.5992 15.4938 11.7209C15.5236 11.8425 15.5868 11.9534 15.6764 12.0409L18.2882 14.6059L17.6743 18.2304C17.6514 18.355 17.6647 18.4834 17.7126 18.6007C17.7605 18.7179 17.841 18.8189 17.9445 18.8918C18.0574 18.9762 18.1947 19.0213 18.3356 19.0204C18.4436 19.0204 18.5515 18.9936 18.6526 18.9461L21.8721 17.2384L25.0917 18.9461C25.2043 19.0042 25.3309 19.0298 25.4572 19.0203C25.5836 19.0107 25.7048 18.9662 25.8074 18.8918C26.0102 18.7433 26.1181 18.4869 26.0776 18.2304L25.4568 14.6059L28.0686 12.0409C28.1579 11.9532 28.2209 11.8423 28.2507 11.7207C28.2804 11.5992 28.2757 11.4717 28.237 11.3527ZM24.2612 13.8903C24.183 13.9661 24.1243 14.0597 24.0902 14.1632C24.0561 14.2666 24.0475 14.3768 24.0653 14.4843L24.5108 17.1098L22.1891 15.8744C22.0917 15.8218 21.9828 15.7939 21.8721 15.7933C21.7614 15.7936 21.6525 15.8214 21.5552 15.8744L19.2335 17.1098L19.679 14.4843C19.698 14.3773 19.6907 14.2674 19.6577 14.1639C19.6248 14.0605 19.5672 13.9665 19.49 13.8903L17.5931 12.0271L20.205 11.649C20.3129 11.6323 20.4152 11.5898 20.5033 11.5252C20.5914 11.4606 20.6626 11.3757 20.711 11.2778L21.8721 8.90176L23.0333 11.2778C23.0823 11.3766 23.1546 11.462 23.244 11.5266C23.3333 11.5913 23.437 11.6333 23.5462 11.649L26.1518 12.0271L24.2612 13.8903ZM39.9472 5.83138C39.8186 5.69663 39.6165 5.62857 39.4343 5.62857H33.1705V6.97813H38.7998L38.7661 8.75326C38.3948 13.0323 35.9721 17.0211 32.1785 19.7278C32.2053 19.4308 32.219 19.1338 32.219 18.8299V0.67513C32.2199 0.586216 32.2031 0.498012 32.1695 0.415687C32.1359 0.333362 32.0862 0.258571 32.0233 0.195695C31.9605 0.13282 31.8857 0.0831255 31.8033 0.0495229C31.721 0.0159203 31.6328 -0.000914339 31.5439 5.22017e-06H12.3688C12.2801 -0.000267114 12.1922 0.0170096 12.1102 0.0508414C12.0281 0.0846731 11.9536 0.134392 11.8908 0.197137C11.8281 0.259883 11.7784 0.334416 11.7445 0.416449C11.7107 0.498482 11.6934 0.586395 11.6937 0.67513V18.8313C11.6937 19.1146 11.7075 19.3916 11.7343 19.668C7.98809 16.9682 5.59902 13.0061 5.23465 8.80138L5.19409 6.97882H10.8233V5.62926H4.50521C4.41463 5.62801 4.32475 5.64536 4.24115 5.68025C4.15754 5.71513 4.08198 5.76681 4.01915 5.83207C3.95725 5.89652 3.90873 5.9726 3.8764 6.05591C3.84407 6.13922 3.82856 6.22811 3.83077 6.31744L3.8844 8.86876C4.32302 13.9308 7.37415 18.6148 12.0918 21.5243C12.5582 23.0501 13.408 24.4308 14.5601 25.5345C15.7122 26.6382 17.1281 27.4281 18.6725 27.8286V32.1283L12.6858 35.6043C12.5843 35.6649 12.5005 35.751 12.4425 35.8539C12.3845 35.9569 12.3544 36.0732 12.3551 36.1914V43.3256C12.3551 43.7037 12.6521 44.0007 13.0302 44.0007H30.7141C31.0922 44.0007 31.3892 43.7037 31.3892 43.3256V36.1907H31.3823C31.3853 36.0721 31.3561 35.9549 31.2979 35.8516C31.2396 35.7482 31.1546 35.6625 31.0516 35.6036L24.9769 32.1276V27.8953C26.5673 27.5314 28.0346 26.7573 29.2329 25.6502C30.4313 24.543 31.3188 23.1414 31.8072 21.5848C36.5791 18.6759 39.6702 13.9645 40.1088 8.82819L40.1693 6.31744C40.17 6.13526 40.0751 5.95994 39.9472 5.83138ZM30.039 42.6504H13.7053V36.8658H30.039V42.6504ZM28.1758 35.5156H15.5341L19.6852 33.099C19.7878 33.0408 19.873 32.9564 19.9323 32.8545C19.9916 32.7525 20.0228 32.6367 20.0228 32.5188V28.0844C20.3466 28.1181 20.6704 28.1387 21.0018 28.1387H22.9116C23.1543 28.1387 23.3908 28.1188 23.6273 28.0981V32.5188C23.6273 32.7614 23.7559 32.9842 23.9649 33.1059L28.1758 35.5156ZM30.8688 18.8313C30.8658 19.4662 30.7864 20.0985 30.6323 20.7144C30.6323 20.7213 30.6254 20.7213 30.6254 20.7213L30.6323 20.735C29.775 24.2041 26.6434 26.7891 22.911 26.7891H21.0011C17.3092 26.7891 14.1976 24.2516 13.3066 20.8361L13.374 20.7213C13.3342 20.7014 13.2959 20.6789 13.2591 20.6539C13.1186 20.0565 13.0462 19.445 13.0433 18.8313V4.34638H30.8688V18.8313ZM30.8688 2.99682H13.044V1.34957H30.8688V2.99682ZM18.2882 14.6059L17.6743 18.2304C17.6514 18.355 17.6647 18.4834 17.7126 18.6007C17.7605 18.7179 17.841 18.8189 17.9445 18.8918C18.0574 18.9762 18.1947 19.0213 18.3356 19.0204C18.4436 19.0204 18.5515 18.9936 18.6526 18.9461L21.8721 17.2384L25.0917 18.9461C25.2043 19.0042 25.3309 19.0298 25.4572 19.0203C25.5836 19.0107 25.7048 18.9662 25.8074 18.8918C26.0102 18.7433 26.1181 18.4869 26.0776 18.2304L25.4568 14.6059L28.0686 12.0409C28.1579 11.9532 28.2209 11.8423 28.2507 11.7207C28.2804 11.5992 28.2757 11.4717 28.237 11.3527C28.1992 11.232 28.1277 11.1246 28.0309 11.0432C27.934 10.9618 27.8159 10.9098 27.6905 10.8934L24.0928 10.3668L22.4799 7.06613C22.2503 6.60688 21.4947 6.60688 21.2651 7.06613L19.6522 10.3668L16.0476 10.8934C15.9234 10.9109 15.8067 10.9634 15.7111 11.0447C15.6155 11.126 15.5451 11.2328 15.508 11.3527C15.469 11.4717 15.4641 11.5992 15.4938 11.7209C15.5236 11.8425 15.5868 11.9534 15.6764 12.0409L18.2882 14.6059ZM20.205 11.649C20.3129 11.6323 20.4152 11.5898 20.5033 11.5252C20.5914 11.4606 20.6626 11.3764 20.711 11.2784L21.8721 8.90244L23.0333 11.2784C23.0823 11.3772 23.1546 11.4627 23.244 11.5273C23.3333 11.592 23.437 11.6333 23.5462 11.649L26.1518 12.0278L24.2619 13.8909C24.1837 13.9668 24.125 14.0604 24.0909 14.1639C24.0568 14.2673 24.0482 14.3775 24.066 14.4849L24.5115 17.1105L22.1898 15.8751C22.0924 15.8224 21.9835 15.7946 21.8728 15.7939C21.7621 15.7942 21.6532 15.8221 21.5559 15.8751L19.2342 17.1105L19.6797 14.4849C19.6987 14.378 19.6914 14.2681 19.6584 14.1646C19.6255 14.0612 19.5679 13.9672 19.4907 13.8909L17.5938 12.0278L20.205 11.649ZM28.237 11.3527C28.1992 11.232 28.1277 11.1246 28.0309 11.0432C27.934 10.9618 27.8159 10.9098 27.6905 10.8934L24.0928 10.3668L22.4799 7.06613C22.2503 6.60688 21.4947 6.60688 21.2651 7.06613L19.6522 10.3668L16.0476 10.8934C15.9234 10.9109 15.8067 10.9634 15.7111 11.0447C15.6155 11.126 15.5451 11.2328 15.508 11.3527C15.469 11.4717 15.4641 11.5992 15.4938 11.7209C15.5236 11.8425 15.5868 11.9534 15.6764 12.0409L18.2882 14.6059L17.6743 18.2304C17.6514 18.355 17.6647 18.4834 17.7126 18.6007C17.7605 18.7179 17.841 18.8189 17.9445 18.8918C18.0574 18.9762 18.1947 19.0213 18.3356 19.0204C18.4436 19.0204 18.5515 18.9936 18.6526 18.9461L21.8721 17.2384L25.0917 18.9461C25.2043 19.0042 25.3309 19.0298 25.4572 19.0203C25.5836 19.0107 25.7048 18.9662 25.8074 18.8918C26.0102 18.7433 26.1181 18.4869 26.0776 18.2304L25.4568 14.6059L28.0686 12.0409C28.1579 11.9532 28.2209 11.8423 28.2507 11.7207C28.2804 11.5992 28.2757 11.4717 28.237 11.3527ZM24.2612 13.8903C24.183 13.9661 24.1243 14.0597 24.0902 14.1632C24.0561 14.2666 24.0475 14.3768 24.0653 14.4843L24.5108 17.1098L22.1891 15.8744C22.0917 15.8218 21.9828 15.7939 21.8721 15.7933C21.7614 15.7936 21.6525 15.8214 21.5552 15.8744L19.2335 17.1098L19.679 14.4843C19.698 14.3773 19.6907 14.2674 19.6577 14.1639C19.6248 14.0605 19.5672 13.9665 19.49 13.8903L17.5931 12.0271L20.205 11.649C20.3129 11.6323 20.4152 11.5898 20.5033 11.5252C20.5914 11.4606 20.6626 11.3757 20.711 11.2778L21.8721 8.90176L23.0333 11.2778C23.0823 11.3766 23.1546 11.462 23.244 11.5266C23.3333 11.5913 23.437 11.6333 23.5462 11.649L26.1518 12.0271L24.2612 13.8903Z" fill="white"/>
<path d="M30.0387 36.8658V42.6504H13.7051V36.8658H30.0387ZM24.261 13.8902L26.1509 12.0271L23.5453 11.649C23.4361 11.6333 23.3324 11.5913 23.243 11.5266C23.1537 11.462 23.0814 11.3766 23.0324 11.2777L21.8712 8.90175L20.71 11.2777C20.6617 11.3757 20.5904 11.4606 20.5024 11.5252C20.4143 11.5898 20.312 11.6323 20.204 11.649L17.5922 12.0271L19.489 13.8902C19.6444 14.0456 19.7186 14.2684 19.6781 14.4842L19.2326 17.1098L21.5543 15.8744C21.6517 15.8218 21.7605 15.7939 21.8712 15.7932C21.9819 15.7936 22.0909 15.8214 22.1881 15.8744L24.5098 17.1098L24.0643 14.4842C24.047 14.3767 24.0559 14.2666 24.0901 14.1632C24.1243 14.0598 24.1829 13.9662 24.261 13.8902Z" fill="#95C8C3"/>
</g>
<defs>
<clipPath id="clip0_88_2844">
<rect width="44" height="44" fill="white"/>
</clipPath>
</defs>
</svg>
