<svg width="48" height="48" viewBox="0 0 48 48" fill="none" xmlns="http://www.w3.org/2000/svg">
<path d="M36.1296 30.5153V31.4557C36.1286 31.9561 35.9294 32.4357 35.5756 32.7895C35.2218 33.1433 34.7422 33.3425 34.2419 33.3435H13.6401C13.14 33.3425 12.6608 33.1432 12.3074 32.7893C11.9541 32.4354 11.7556 31.9558 11.7554 31.4557V30.5153H36.1296ZM27.9531 1.25775H19.9311C16.3469 1.25775 13.4316 4.173 13.4316 7.75725V21.789C13.4326 22.5338 13.7289 23.2479 14.2556 23.7745C14.7823 24.3012 15.4963 24.5975 16.2411 24.5985H31.6394C32.3847 24.5981 33.0993 24.3021 33.6266 23.7754C34.1539 23.2486 34.4507 22.5343 34.4519 21.789V7.7565C34.4526 4.173 31.5374 1.25775 27.9531 1.25775ZM30.7821 15.9683H17.1021V14.7105H30.7821V15.9683ZM30.7821 12.9345H17.1021V11.6768H30.7821V12.9345ZM30.7821 9.90075H17.1021V8.643H30.7821V9.90075Z" fill="#95C8C3"/>
<path d="M28.6528 1.25775H26.4126C29.9968 1.25775 32.9121 4.173 32.9121 7.75725V21.789C32.9109 22.5343 32.6141 23.2487 32.0868 23.7754C31.5596 24.3021 30.8449 24.5981 30.0996 24.5985H32.3398C33.0851 24.5981 33.7998 24.3021 34.3271 23.7754C34.8544 23.2487 35.1512 22.5343 35.1523 21.789V7.7565C35.1516 4.173 32.2363 1.25775 28.6528 1.25775Z" fill="#95C8C3"/>
<path d="M17.102 8.643V9.90075H30.782V8.643H17.102ZM17.102 11.6768V12.9345H30.782V11.6768H17.102ZM17.102 14.7105V15.9683H30.782V14.7105H17.102ZM17.102 15.9683H30.782V14.7105H17.102V15.9683ZM17.102 12.9345H30.782V11.6768H17.102V12.9345ZM17.102 8.643V9.90075H30.782V8.643H17.102ZM36.9005 21.2992V22.557H39.4475L37.883 31.1423H37.3873V29.8845C37.3874 29.8016 37.3711 29.7196 37.3395 29.643C37.3078 29.5664 37.2613 29.4969 37.2028 29.4383C37.1442 29.3797 37.0746 29.3332 36.998 29.3016C36.9214 29.2699 36.8394 29.2537 36.7565 29.2537H27.2428V25.8555H31.6393C32.7181 25.8551 33.7527 25.4266 34.5159 24.664C35.279 23.9014 35.7083 22.8671 35.7095 21.7882V7.7565C35.7103 3.4815 32.2288 0 27.953 0H19.931C15.6523 0 12.1745 3.4815 12.1745 7.7565V21.7882C12.1755 22.8666 12.6043 23.9006 13.3669 24.6631C14.1294 25.4257 15.1634 25.8545 16.2418 25.8555H20.891V29.2537H11.1245C11.0417 29.2537 10.9596 29.2699 10.883 29.3016C10.8065 29.3332 10.7369 29.3797 10.6783 29.4383C10.6197 29.4969 10.5732 29.5664 10.5416 29.643C10.5099 29.7196 10.4937 29.8016 10.4938 29.8845V31.1423H10.1195L8.55127 22.557H11.102V21.2992H4.31152V22.557H7.27477L8.97727 31.8848C9.00305 32.0296 9.07909 32.1606 9.192 32.2549C9.30491 32.3491 9.44745 32.4005 9.59452 32.4H10.6573C11.0608 33.6705 12.2383 34.6012 13.64 34.6012H15.9725L18.3313 38.313C18.3884 38.4021 18.4669 38.4754 18.5597 38.5262C18.6524 38.577 18.7565 38.6038 18.8623 38.604H23.3713V43.9447H16.13C16.0472 43.9446 15.9651 43.9609 15.8885 43.9926C15.812 44.0242 15.7424 44.0707 15.6838 44.1293C15.6252 44.1879 15.5787 44.2574 15.5471 44.334C15.5154 44.4106 15.4992 44.4926 15.4993 44.5755V47.8237H16.76V45.2063H23.3713V48H24.629V45.2063H31.1248V47.8237H32.3825V44.5755C32.3826 44.4926 32.3664 44.4106 32.3347 44.334C32.303 44.2574 32.2566 44.1879 32.198 44.1293C32.1394 44.0707 32.0698 44.0242 31.9933 43.9926C31.9167 43.9609 31.8346 43.9446 31.7518 43.9447H24.6283V38.604H29.0188C29.1247 38.6043 29.2289 38.5777 29.3217 38.5268C29.4146 38.476 29.493 38.4024 29.5498 38.313L31.9085 34.6012H34.241C35.6428 34.6012 36.8203 33.6698 37.2268 32.4H38.4073C38.711 32.4 38.9705 32.1825 39.0245 31.8848L40.727 22.557H43.6873V21.2992H36.9005ZM16.241 24.5985C15.4962 24.5975 14.7822 24.3012 14.2555 23.7745C13.7288 23.2479 13.4325 22.5338 13.4315 21.789V7.7565C13.4315 4.17225 16.3468 1.257 19.931 1.257H27.9538C31.538 1.257 34.4533 4.17225 34.4533 7.7565V21.7882C34.4521 22.5335 34.1553 23.2479 33.628 23.7746C33.1007 24.3013 32.3861 24.5974 31.6408 24.5978L16.241 24.5985ZM25.985 25.8562V29.2545H22.148V25.8562H25.985ZM23.3713 37.347H19.208L17.4643 34.6012H23.3713V37.347ZM28.673 37.347H24.6283V34.6012H30.4168L28.673 37.347ZM36.1295 31.4558C36.1285 31.9561 35.9293 32.4357 35.5755 32.7895C35.2217 33.1433 34.7421 33.3425 34.2418 33.3435H13.64C13.1399 33.3425 12.6607 33.1432 12.3073 32.7893C11.954 32.4354 11.7555 31.9558 11.7553 31.4558V30.5153H36.1295V31.4558ZM17.102 15.9683H30.782V14.7105H17.102V15.9683ZM17.102 12.9345H30.782V11.6768H17.102V12.9345ZM17.102 9.90075H30.782V8.643H17.102V9.90075ZM17.102 8.643V9.90075H30.782V8.643H17.102ZM17.102 11.6768V12.9345H30.782V11.6768H17.102ZM17.102 14.7105V15.9683H30.782V14.7105H17.102ZM17.102 14.7105V15.9683H30.782V14.7105H17.102ZM17.102 11.6768V12.9345H30.782V11.6768H17.102ZM17.102 8.643V9.90075H30.782V8.643H17.102Z" fill="white"/>
</svg>
