<svg width="64" height="64" viewBox="0 0 64 64" fill="none" xmlns="http://www.w3.org/2000/svg">
<g clip-path="url(#clip0_88_2816)">
<path d="M44.215 30.743V31.897H48.956V30.743H44.215ZM43.061 27.859V29.013H47.802V27.859H43.061ZM43.061 33.626V34.78H47.802V33.626H43.061ZM15.953 27.859V29.013H20.694V27.859H15.953ZM15.953 33.626V34.78H20.694V33.626H15.953ZM14.8 30.743V31.897H19.541V30.743H14.8ZM38.793 29.012C38.7325 28.8298 38.6199 28.6693 38.4692 28.5504C38.3185 28.4315 38.1362 28.3594 37.945 28.343L34.306 28.055L32.899 24.681C32.8246 24.5037 32.6995 24.3523 32.5394 24.2458C32.3792 24.1394 32.1912 24.0826 31.999 24.0826C31.8067 24.0826 31.6187 24.1394 31.4586 24.2458C31.2985 24.3523 31.1734 24.5037 31.099 24.681L29.697 28.055L26.058 28.343C25.8652 28.3598 25.6816 28.4326 25.5299 28.5526C25.3781 28.6725 25.2648 28.8343 25.204 29.018C25.1463 29.2008 25.1434 29.3965 25.1957 29.581C25.2479 29.7654 25.353 29.9306 25.498 30.056L28.272 32.432L27.424 35.985C27.3905 36.1246 27.3881 36.2698 27.417 36.4104C27.4459 36.551 27.5055 36.6836 27.5914 36.7986C27.6773 36.9136 27.7874 37.0083 27.9141 37.0759C28.0407 37.1436 28.1806 37.1825 28.324 37.19C28.341 37.184 28.353 37.19 28.37 37.19C28.549 37.19 28.728 37.138 28.883 37.046L31.998 35.143L35.113 37.046C35.2784 37.1452 35.4692 37.1937 35.6619 37.1855C35.8545 37.1773 36.0406 37.1128 36.197 37C36.3528 36.8868 36.4716 36.73 36.5384 36.5494C36.6051 36.3687 36.6168 36.1723 36.572 35.985L35.724 32.432L38.498 30.062C38.645 29.9354 38.7514 29.7683 38.8039 29.5815C38.8563 29.3947 38.8526 29.1966 38.793 29.012ZM34.71 31.787C34.6288 31.8553 34.5684 31.9451 34.5357 32.046C34.503 32.147 34.4993 32.255 34.525 32.358L35.356 35.842L32.299 33.973C32.2082 33.919 32.1046 33.8905 31.999 33.8905C31.8934 33.8905 31.7897 33.919 31.699 33.973L28.648 35.842L29.479 32.358C29.5026 32.2545 29.4973 32.1466 29.4638 32.0459C29.4303 31.9452 29.3698 31.8557 29.289 31.787L26.572 29.463L30.136 29.175C30.2419 29.1663 30.3434 29.1289 30.4298 29.0669C30.5161 29.0049 30.5839 28.9206 30.626 28.823L31.999 25.518L33.377 28.823C33.4173 28.9206 33.4838 29.0052 33.5693 29.0673C33.6547 29.1295 33.7557 29.1667 33.861 29.175L37.425 29.463L34.71 31.787ZM44.215 30.743V31.897H48.956V30.743H44.215ZM43.061 33.626V34.78H47.802V33.626H43.061ZM43.061 27.859V29.013H47.802V27.859H43.061ZM38.793 29.012C38.7325 28.8298 38.6199 28.6693 38.4692 28.5504C38.3185 28.4315 38.1362 28.3594 37.945 28.343L34.306 28.055L32.899 24.681C32.8246 24.5037 32.6995 24.3523 32.5394 24.2458C32.3792 24.1394 32.1912 24.0826 31.999 24.0826C31.8067 24.0826 31.6187 24.1394 31.4586 24.2458C31.2985 24.3523 31.1734 24.5037 31.099 24.681L29.697 28.055L26.058 28.343C25.8652 28.3598 25.6816 28.4326 25.5299 28.5526C25.3781 28.6725 25.2648 28.8343 25.204 29.018C25.1463 29.2008 25.1434 29.3965 25.1957 29.581C25.2479 29.7654 25.353 29.9306 25.498 30.056L28.272 32.432L27.424 35.985C27.3905 36.1246 27.3881 36.2698 27.417 36.4104C27.4459 36.551 27.5055 36.6836 27.5914 36.7986C27.6773 36.9136 27.7874 37.0083 27.9141 37.0759C28.0407 37.1436 28.1806 37.1825 28.324 37.19C28.341 37.184 28.353 37.19 28.37 37.19C28.549 37.19 28.728 37.138 28.883 37.046L31.998 35.143L35.113 37.046C35.2784 37.1452 35.4692 37.1937 35.6619 37.1855C35.8545 37.1773 36.0406 37.1128 36.197 37C36.3528 36.8868 36.4716 36.73 36.5384 36.5494C36.6051 36.3687 36.6168 36.1723 36.572 35.985L35.724 32.432L38.498 30.062C38.645 29.9354 38.7514 29.7683 38.8039 29.5815C38.8563 29.3947 38.8526 29.1966 38.793 29.012ZM34.71 31.787C34.6288 31.8553 34.5684 31.9451 34.5357 32.046C34.503 32.147 34.4993 32.255 34.525 32.358L35.356 35.842L32.299 33.973C32.2082 33.919 32.1046 33.8905 31.999 33.8905C31.8934 33.8905 31.7897 33.919 31.699 33.973L28.648 35.842L29.479 32.358C29.5026 32.2545 29.4973 32.1466 29.4638 32.0459C29.4303 31.9452 29.3698 31.8557 29.289 31.787L26.572 29.463L30.136 29.175C30.2419 29.1663 30.3434 29.1289 30.4298 29.0669C30.5161 29.0049 30.5839 28.9206 30.626 28.823L31.999 25.518L33.377 28.823C33.4173 28.9206 33.4838 29.0052 33.5693 29.0673C33.6547 29.1295 33.7557 29.1667 33.861 29.175L37.425 29.463L34.71 31.787ZM15.953 33.626V34.78H20.694V33.626H15.953ZM15.953 27.859V29.013H20.694V27.859H15.953ZM14.8 30.743V31.897H19.541V30.743H14.8ZM14.8 30.743V31.897H19.541V30.743H14.8ZM15.953 27.859V29.013H20.694V27.859H15.953ZM15.953 33.626V34.78H20.694V33.626H15.953ZM38.793 29.012C38.7325 28.8298 38.6199 28.6693 38.4692 28.5504C38.3185 28.4315 38.1362 28.3594 37.945 28.343L34.306 28.055L32.899 24.681C32.8246 24.5037 32.6995 24.3523 32.5394 24.2458C32.3792 24.1394 32.1912 24.0826 31.999 24.0826C31.8067 24.0826 31.6187 24.1394 31.4586 24.2458C31.2985 24.3523 31.1734 24.5037 31.099 24.681L29.697 28.055L26.058 28.343C25.8652 28.3598 25.6816 28.4326 25.5299 28.5526C25.3781 28.6725 25.2648 28.8343 25.204 29.018C25.1463 29.2008 25.1434 29.3965 25.1957 29.581C25.2479 29.7654 25.353 29.9306 25.498 30.056L28.272 32.432L27.424 35.985C27.3905 36.1246 27.3881 36.2698 27.417 36.4104C27.4459 36.551 27.5055 36.6836 27.5914 36.7986C27.6773 36.9136 27.7874 37.0083 27.9141 37.0759C28.0407 37.1436 28.1806 37.1825 28.324 37.19C28.341 37.184 28.353 37.19 28.37 37.19C28.549 37.19 28.728 37.138 28.883 37.046L31.998 35.143L35.113 37.046C35.2784 37.1452 35.4692 37.1937 35.6619 37.1855C35.8545 37.1773 36.0406 37.1128 36.197 37C36.3528 36.8868 36.4716 36.73 36.5384 36.5494C36.6051 36.3687 36.6168 36.1723 36.572 35.985L35.724 32.432L38.498 30.062C38.645 29.9354 38.7514 29.7683 38.8039 29.5815C38.8563 29.3947 38.8526 29.1966 38.793 29.012ZM34.71 31.787C34.6288 31.8553 34.5684 31.9451 34.5357 32.046C34.503 32.147 34.4993 32.255 34.525 32.358L35.356 35.842L32.299 33.973C32.2082 33.919 32.1046 33.8905 31.999 33.8905C31.8934 33.8905 31.7897 33.919 31.699 33.973L28.648 35.842L29.479 32.358C29.5026 32.2545 29.4973 32.1466 29.4638 32.0459C29.4303 31.9452 29.3698 31.8557 29.289 31.787L26.572 29.463L30.136 29.175C30.2419 29.1663 30.3434 29.1289 30.4298 29.0669C30.5161 29.0049 30.5839 28.9206 30.626 28.823L31.999 25.518L33.377 28.823C33.4173 28.9206 33.4838 29.0052 33.5693 29.0673C33.6547 29.1295 33.7557 29.1667 33.861 29.175L37.425 29.463L34.71 31.787ZM43.061 27.859V29.013H47.802V27.859H43.061ZM43.061 33.626V34.78H47.802V33.626H43.061ZM44.215 30.743V31.897H48.956V30.743H44.215ZM44.215 30.743V31.897H48.956V30.743H44.215ZM43.061 34.78H47.802V33.626H43.061V34.78ZM47.802 27.859H43.061V29.013H47.802V27.859ZM38.793 29.012C38.7325 28.8298 38.6199 28.6693 38.4692 28.5504C38.3185 28.4315 38.1362 28.3594 37.945 28.343L34.306 28.055L32.899 24.681C32.8246 24.5037 32.6995 24.3523 32.5394 24.2458C32.3792 24.1394 32.1912 24.0826 31.999 24.0826C31.8067 24.0826 31.6187 24.1394 31.4586 24.2458C31.2985 24.3523 31.1734 24.5037 31.099 24.681L29.697 28.055L26.058 28.343C25.8652 28.3598 25.6816 28.4326 25.5299 28.5526C25.3781 28.6725 25.2648 28.8343 25.204 29.018C25.1463 29.2008 25.1434 29.3965 25.1957 29.581C25.2479 29.7654 25.353 29.9306 25.498 30.056L28.272 32.432L27.424 35.985C27.3905 36.1246 27.3881 36.2698 27.417 36.4104C27.4459 36.551 27.5055 36.6836 27.5914 36.7986C27.6773 36.9136 27.7874 37.0083 27.9141 37.0759C28.0407 37.1436 28.1806 37.1825 28.324 37.19C28.341 37.184 28.353 37.19 28.37 37.19C28.549 37.19 28.728 37.138 28.883 37.046L31.998 35.143L35.113 37.046C35.2784 37.1452 35.4692 37.1937 35.6619 37.1855C35.8545 37.1773 36.0406 37.1128 36.197 37C36.3528 36.8868 36.4716 36.73 36.5384 36.5494C36.6051 36.3687 36.6168 36.1723 36.572 35.985L35.724 32.432L38.498 30.062C38.645 29.9354 38.7514 29.7683 38.8039 29.5815C38.8563 29.3947 38.8526 29.1966 38.793 29.012ZM34.71 31.787C34.6288 31.8553 34.5684 31.9451 34.5357 32.046C34.503 32.147 34.4993 32.255 34.525 32.358L35.356 35.842L32.299 33.973C32.2082 33.919 32.1046 33.8905 31.999 33.8905C31.8934 33.8905 31.7897 33.919 31.699 33.973L28.648 35.842L29.479 32.358C29.5026 32.2545 29.4973 32.1466 29.4638 32.0459C29.4303 31.9452 29.3698 31.8557 29.289 31.787L26.572 29.463L30.136 29.175C30.2419 29.1663 30.3434 29.1289 30.4298 29.0669C30.5161 29.0049 30.5839 28.9206 30.626 28.823L31.999 25.518L33.377 28.823C33.4173 28.9206 33.4838 29.0052 33.5693 29.0673C33.6547 29.1295 33.7557 29.1667 33.861 29.175L37.425 29.463L34.71 31.787ZM15.953 34.78H20.694V33.626H15.953V34.78ZM15.953 27.859V29.013H20.694V27.859H15.953ZM19.541 30.743H14.8V31.897H19.541V30.743ZM59.51 35.934L63.899 29.601C63.958 29.5133 63.9924 29.4113 63.9986 29.3058C64.0048 29.2002 63.9824 29.095 63.934 29.001C63.8851 28.9075 63.8113 28.8294 63.7208 28.7754C63.6302 28.7214 63.5264 28.6936 63.421 28.695H53.039V24.658C53.0396 24.582 53.0252 24.5067 52.9964 24.4364C52.9676 24.3661 52.9252 24.3022 52.8715 24.2485C52.8177 24.1948 52.7539 24.1523 52.6836 24.1236C52.6133 24.0948 52.5379 24.0803 52.462 24.081H39.526C38.5602 23.054 37.3945 22.2356 36.1005 21.6761C34.8065 21.1167 33.4117 20.8281 32.002 20.8281C30.5922 20.8281 29.1974 21.1167 27.9034 21.6761C26.6095 22.2356 25.4437 23.054 24.478 24.081H11.535C11.4591 24.0807 11.384 24.0955 11.3139 24.1244C11.2437 24.1533 11.18 24.1958 11.1264 24.2494C11.0728 24.303 11.0303 24.3668 11.0014 24.4369C10.9725 24.507 10.9577 24.5822 10.958 24.658V28.695H0.576971C0.47177 28.6948 0.368484 28.7231 0.278135 28.777C0.187786 28.8309 0.113765 28.9083 0.0639712 29.001C0.016233 29.0954 -0.00524205 29.2009 0.00179522 29.3065C0.00883248 29.412 0.0441231 29.5138 0.103971 29.601L4.48697 35.934L0.103971 42.267C0.0442457 42.3531 0.00898643 42.4539 0.00194308 42.5585C-0.00510028 42.6631 0.0163356 42.7676 0.0639712 42.861C0.167971 43.051 0.363971 43.172 0.576971 43.172H11.512C11.835 43.172 12.089 42.912 12.089 42.595V39.711H10.935V42.018H1.67797L5.66297 36.262C5.7303 36.1655 5.7664 36.0507 5.7664 35.933C5.7664 35.8153 5.7303 35.7005 5.66297 35.604L1.67797 29.848H10.958V37.98C10.958 38.297 11.218 38.557 11.535 38.557H24.674C25.6356 39.5194 26.7775 40.2827 28.0344 40.8033C29.2913 41.3239 30.6385 41.5916 31.999 41.591C33.3604 41.5923 34.7088 41.325 35.9667 40.8044C37.2247 40.2837 38.3676 39.52 39.33 38.557H52.463C52.786 38.557 53.04 38.297 53.04 37.98V29.848H62.32L58.335 35.604C58.2676 35.7005 58.2315 35.8153 58.2315 35.933C58.2315 36.0507 58.2676 36.1655 58.335 36.262L62.32 42.018H53.063V39.711H51.909V42.595C51.909 42.912 52.169 43.172 52.486 43.172H63.421C63.5265 43.1726 63.6302 43.1442 63.7207 43.09C63.8113 43.0358 63.8852 42.9578 63.9345 42.8645C63.9838 42.7712 64.0065 42.6661 64.0003 42.5608C63.994 42.4554 63.959 42.3538 63.899 42.267L59.51 35.934ZM12.112 37.404V25.234H23.526C22.2829 26.9782 21.6155 29.0671 21.617 31.209C21.617 33.533 22.396 35.673 23.688 37.403L12.112 37.404ZM31.999 40.438C26.912 40.438 22.771 36.297 22.771 31.21C22.771 26.123 26.912 21.982 31.999 21.982C37.086 21.982 41.227 26.123 41.227 31.21C41.227 36.297 37.086 40.438 31.999 40.438ZM51.886 37.404H40.31C41.6552 35.6193 42.3823 33.4449 42.381 31.21C42.381 28.984 41.672 26.925 40.472 25.235H51.886V37.404ZM44.215 31.897H48.956V30.743H44.215V31.897ZM47.802 33.626H43.061V34.78H47.802V33.626ZM47.802 27.859H43.061V29.013H47.802V27.859ZM38.793 29.012C38.7325 28.8298 38.6199 28.6693 38.4692 28.5504C38.3185 28.4315 38.1362 28.3594 37.945 28.343L34.306 28.055L32.899 24.681C32.8246 24.5037 32.6995 24.3523 32.5394 24.2458C32.3792 24.1394 32.1912 24.0826 31.999 24.0826C31.8067 24.0826 31.6187 24.1394 31.4586 24.2458C31.2985 24.3523 31.1734 24.5037 31.099 24.681L29.697 28.055L26.058 28.343C25.8652 28.3598 25.6816 28.4326 25.5299 28.5526C25.3781 28.6725 25.2648 28.8343 25.204 29.018C25.1463 29.2008 25.1434 29.3965 25.1957 29.581C25.2479 29.7654 25.353 29.9306 25.498 30.056L28.272 32.432L27.424 35.985C27.3905 36.1246 27.3881 36.2698 27.417 36.4104C27.4459 36.551 27.5055 36.6836 27.5914 36.7986C27.6773 36.9136 27.7874 37.0083 27.9141 37.0759C28.0407 37.1436 28.1806 37.1825 28.324 37.19C28.341 37.184 28.353 37.19 28.37 37.19C28.549 37.19 28.728 37.138 28.883 37.046L31.998 35.143L35.113 37.046C35.2784 37.1452 35.4692 37.1937 35.6619 37.1855C35.8545 37.1773 36.0406 37.1128 36.197 37C36.3528 36.8868 36.4716 36.73 36.5384 36.5494C36.6051 36.3687 36.6168 36.1723 36.572 35.985L35.724 32.432L38.498 30.062C38.645 29.9354 38.7514 29.7683 38.8039 29.5815C38.8563 29.3947 38.8526 29.1966 38.793 29.012ZM34.71 31.787C34.6288 31.8553 34.5684 31.9451 34.5357 32.046C34.503 32.147 34.4993 32.255 34.525 32.358L35.356 35.842L32.299 33.973C32.2082 33.919 32.1046 33.8905 31.999 33.8905C31.8934 33.8905 31.7897 33.919 31.699 33.973L28.648 35.842L29.479 32.358C29.5026 32.2545 29.4973 32.1466 29.4638 32.0459C29.4303 31.9452 29.3698 31.8557 29.289 31.787L26.572 29.463L30.136 29.175C30.2419 29.1663 30.3434 29.1289 30.4298 29.0669C30.5161 29.0049 30.5839 28.9206 30.626 28.823L31.999 25.518L33.377 28.823C33.4173 28.9206 33.4838 29.0052 33.5693 29.0673C33.6547 29.1295 33.7557 29.1667 33.861 29.175L37.425 29.463L34.71 31.787ZM15.953 34.78H20.694V33.626H15.953V34.78ZM15.953 29.012H20.694V27.859H15.953V29.012ZM19.541 30.743H14.8V31.897H19.541V30.743ZM14.8 30.743V31.897H19.541V30.743H14.8ZM15.953 27.859V29.013H20.694V27.859H15.953ZM15.953 33.626V34.78H20.694V33.626H15.953ZM38.793 29.012C38.7325 28.8298 38.6199 28.6693 38.4692 28.5504C38.3185 28.4315 38.1362 28.3594 37.945 28.343L34.306 28.055L32.899 24.681C32.8246 24.5037 32.6995 24.3523 32.5394 24.2458C32.3792 24.1394 32.1912 24.0826 31.999 24.0826C31.8067 24.0826 31.6187 24.1394 31.4586 24.2458C31.2985 24.3523 31.1734 24.5037 31.099 24.681L29.697 28.055L26.058 28.343C25.8652 28.3598 25.6816 28.4326 25.5299 28.5526C25.3781 28.6725 25.2648 28.8343 25.204 29.018C25.1463 29.2008 25.1434 29.3965 25.1957 29.581C25.2479 29.7654 25.353 29.9306 25.498 30.056L28.272 32.432L27.424 35.985C27.3905 36.1246 27.3881 36.2698 27.417 36.4104C27.4459 36.551 27.5055 36.6836 27.5914 36.7986C27.6773 36.9136 27.7874 37.0083 27.9141 37.0759C28.0407 37.1436 28.1806 37.1825 28.324 37.19C28.341 37.184 28.353 37.19 28.37 37.19C28.549 37.19 28.728 37.138 28.883 37.046L31.998 35.143L35.113 37.046C35.2784 37.1452 35.4692 37.1937 35.6619 37.1855C35.8545 37.1773 36.0406 37.1128 36.197 37C36.3528 36.8868 36.4716 36.73 36.5384 36.5494C36.6051 36.3687 36.6168 36.1723 36.572 35.985L35.724 32.432L38.498 30.062C38.645 29.9354 38.7514 29.7683 38.8039 29.5815C38.8563 29.3947 38.8526 29.1966 38.793 29.012ZM34.71 31.787C34.6288 31.8553 34.5684 31.9451 34.5357 32.046C34.503 32.147 34.4993 32.255 34.525 32.358L35.356 35.842L32.299 33.973C32.2082 33.919 32.1046 33.8905 31.999 33.8905C31.8934 33.8905 31.7897 33.919 31.699 33.973L28.648 35.842L29.479 32.358C29.5026 32.2545 29.4973 32.1466 29.4638 32.0459C29.4303 31.9452 29.3698 31.8557 29.289 31.787L26.572 29.463L30.136 29.175C30.2419 29.1663 30.3434 29.1289 30.4298 29.0669C30.5161 29.0049 30.5839 28.9206 30.626 28.823L31.999 25.518L33.377 28.823C33.4173 28.9206 33.4838 29.0052 33.5693 29.0673C33.6547 29.1295 33.7557 29.1667 33.861 29.175L37.425 29.463L34.71 31.787ZM43.061 27.859V29.013H47.802V27.859H43.061ZM43.061 33.626V34.78H47.802V33.626H43.061ZM44.215 30.743V31.897H48.956V30.743H44.215ZM44.215 30.743V31.897H48.956V30.743H44.215ZM43.061 33.626V34.78H47.802V33.626H43.061ZM43.061 27.859V29.013H47.802V27.859H43.061ZM38.793 29.012C38.7325 28.8298 38.6199 28.6693 38.4692 28.5504C38.3185 28.4315 38.1362 28.3594 37.945 28.343L34.306 28.055L32.899 24.681C32.8246 24.5037 32.6995 24.3523 32.5394 24.2458C32.3792 24.1394 32.1912 24.0826 31.999 24.0826C31.8067 24.0826 31.6187 24.1394 31.4586 24.2458C31.2985 24.3523 31.1734 24.5037 31.099 24.681L29.697 28.055L26.058 28.343C25.8652 28.3598 25.6816 28.4326 25.5299 28.5526C25.3781 28.6725 25.2648 28.8343 25.204 29.018C25.1463 29.2008 25.1434 29.3965 25.1957 29.581C25.2479 29.7654 25.353 29.9306 25.498 30.056L28.272 32.432L27.424 35.985C27.3905 36.1246 27.3881 36.2698 27.417 36.4104C27.4459 36.551 27.5055 36.6836 27.5914 36.7986C27.6773 36.9136 27.7874 37.0083 27.9141 37.0759C28.0407 37.1436 28.1806 37.1825 28.324 37.19C28.341 37.184 28.353 37.19 28.37 37.19C28.549 37.19 28.728 37.138 28.883 37.046L31.998 35.143L35.113 37.046C35.2784 37.1452 35.4692 37.1937 35.6619 37.1855C35.8545 37.1773 36.0406 37.1128 36.197 37C36.3528 36.8868 36.4716 36.73 36.5384 36.5494C36.6051 36.3687 36.6168 36.1723 36.572 35.985L35.724 32.432L38.498 30.062C38.645 29.9354 38.7514 29.7683 38.8039 29.5815C38.8563 29.3947 38.8526 29.1966 38.793 29.012ZM34.71 31.787C34.6288 31.8553 34.5684 31.9451 34.5357 32.046C34.503 32.147 34.4993 32.255 34.525 32.358L35.356 35.842L32.299 33.973C32.2082 33.919 32.1046 33.8905 31.999 33.8905C31.8934 33.8905 31.7897 33.919 31.699 33.973L28.648 35.842L29.479 32.358C29.5026 32.2545 29.4973 32.1466 29.4638 32.0459C29.4303 31.9452 29.3698 31.8557 29.289 31.787L26.572 29.463L30.136 29.175C30.2419 29.1663 30.3434 29.1289 30.4298 29.0669C30.5161 29.0049 30.5839 28.9206 30.626 28.823L31.999 25.518L33.377 28.823C33.4173 28.9206 33.4838 29.0052 33.5693 29.0673C33.6547 29.1295 33.7557 29.1667 33.861 29.175L37.425 29.463L34.71 31.787ZM15.953 33.626V34.78H20.694V33.626H15.953ZM15.953 27.859V29.013H20.694V27.859H15.953ZM14.8 30.743V31.897H19.541V30.743H14.8Z" fill="white"/>
<path d="M34.5248 32.358L35.3558 35.842L32.2988 33.973C32.2081 33.919 32.1044 33.8905 31.9988 33.8905C31.8932 33.8905 31.7896 33.919 31.6988 33.973L28.6478 35.842L29.4788 32.358C29.5024 32.2545 29.4972 32.1466 29.4637 32.0459C29.4302 31.9452 29.3697 31.8557 29.2888 31.787L26.5718 29.463L30.1358 29.175C30.2417 29.1663 30.3433 29.1289 30.4296 29.0669C30.5159 29.0049 30.5837 28.9206 30.6258 28.823L31.9988 25.518L33.3768 28.823C33.4171 28.9206 33.4837 29.0052 33.5691 29.0673C33.6545 29.1295 33.7555 29.1667 33.8608 29.175L37.4248 29.463L34.7078 31.787C34.6269 31.8555 34.5668 31.9453 34.5345 32.0463C34.5021 32.1472 34.4988 32.2552 34.5248 32.358ZM51.8858 25.235V37.405H40.3098C41.6551 35.6203 42.3821 33.4459 42.3808 31.211C42.3808 28.985 41.6718 26.926 40.4718 25.236L51.8858 25.235ZM43.0608 29.012H47.8018V27.858H43.0608V29.012ZM47.8018 33.626H43.0608V34.78H47.8018V33.626ZM48.9558 30.743H44.2148V31.897H48.9558V30.743ZM23.6878 37.404H12.1118V25.234H23.5258C22.2827 26.9782 21.6153 29.0671 21.6168 31.209C21.6168 33.534 22.3958 35.674 23.6878 37.404ZM14.7998 31.896H19.5408V30.742H14.7998V31.896ZM20.6938 33.626H15.9528V34.78H20.6938V33.626ZM20.6938 27.859H15.9528V29.013H20.6938V27.859Z" fill="#95C8C3"/>
</g>
<defs>
<clipPath id="clip0_88_2816">
<rect width="64" height="64" fill="white"/>
</clipPath>
</defs>
</svg>
