<svg width="41" height="39" viewBox="0 0 41 39" fill="none" xmlns="http://www.w3.org/2000/svg">
<path d="M25.005 7.54687C24.1128 6.65581 22.9764 6.04933 21.7396 5.80415C20.5027 5.55898 19.2209 5.68611 18.0562 6.16947C16.8916 6.65283 15.8965 7.47072 15.1967 8.51968C14.497 9.56864 14.124 10.8016 14.125 12.0625V14.1875C14.1256 15.5042 14.5339 16.7884 15.2938 17.8637C15.5731 18.2515 15.8937 18.6078 16.25 18.9262L16.335 18.99C16.4501 19.0921 16.5707 19.1879 16.6963 19.2769L16.93 19.4363L17.1319 19.5744C17.4674 19.778 17.8235 19.9454 18.1944 20.0738L18.715 20.2544C19.0619 20.3576 19.4176 20.4287 19.7775 20.4669C20.2151 20.5201 20.6575 20.5201 21.095 20.4669C21.4868 20.4319 21.8745 20.3608 22.2531 20.2544L22.7631 20.0738L23.2838 19.8506L23.4963 19.7337C23.565 19.7036 23.6293 19.6643 23.6875 19.6169L23.9 19.4894L24.0806 19.3725L24.2081 19.2769C24.3356 19.1813 24.4631 19.0856 24.58 18.9794L24.665 18.9156C25.0213 18.5971 25.3419 18.2409 25.6213 17.8531C26.4093 16.7909 26.8475 15.5098 26.875 14.1875V12.0625C26.8757 11.2238 26.7108 10.3932 26.3899 9.61836C26.069 8.84349 25.5984 8.13955 25.005 7.54687ZM23.2413 17.4387C23.217 17.4649 23.1882 17.4865 23.1563 17.5025L23.0181 17.6087L22.6888 17.8319L22.5613 17.8956L22.455 17.9488L22.9544 18.8837L22.3594 17.9912L22.0513 18.1294L21.7219 18.2462C21.4573 18.3182 21.1872 18.368 20.9144 18.395C20.6322 18.4318 20.3465 18.4318 20.0644 18.395C19.8124 18.3747 19.5631 18.3284 19.3206 18.2569C19.2047 18.226 19.0911 18.1869 18.9806 18.14L18.6725 18.0019L18.205 18.9581L18.5769 17.9488C18.4936 17.9169 18.415 17.874 18.3431 17.8212L18.2475 17.7681L18.12 17.6831L17.9819 17.5769H17.9181L17.7906 17.4706L17.6313 17.375C17.1895 16.9709 16.8381 16.4781 16.6001 15.9288C16.362 15.3795 16.2427 14.7861 16.25 14.1875V12.0625C16.2472 11.2205 16.4946 10.3967 16.9607 9.69557C17.4269 8.99441 18.0908 8.44751 18.8682 8.12424C19.6457 7.80097 20.5016 7.71591 21.3274 7.87984C22.1533 8.04377 22.9119 8.4493 23.5069 9.045C23.9027 9.44125 24.2163 9.91182 24.4296 10.4297C24.643 10.9475 24.7518 11.5024 24.75 12.0625V14.1875C24.7573 14.7861 24.638 15.3795 24.3999 15.9288C24.1619 16.4781 23.8105 16.9709 23.3688 17.375C23.3241 17.3917 23.2814 17.413 23.2413 17.4387Z" fill="white"/>
<path d="M24.7503 12.0625V14.1875C24.7576 14.7861 24.6383 15.3795 24.4002 15.9288C24.1622 16.4781 23.8108 16.9709 23.3691 17.375C23.3217 17.4083 23.2788 17.4476 23.2416 17.4919C23.2173 17.5181 23.1885 17.5396 23.1566 17.5556L23.0184 17.6619L22.6891 17.885L22.5616 17.9488L22.4553 18.0019H22.3597L22.0516 18.14L21.7222 18.2569C21.4576 18.3288 21.1875 18.3786 20.9147 18.4056C20.6326 18.4425 20.3468 18.4425 20.0647 18.4056C19.8127 18.3854 19.5634 18.3391 19.3209 18.2675L18.9809 18.1506L18.6728 18.0125H18.5878C18.5046 17.9806 18.4259 17.9377 18.3541 17.885L18.2584 17.8319L18.1309 17.7469L17.9928 17.6406H17.9291L17.8016 17.5344L17.6316 17.375C17.1898 16.9709 16.8384 16.4781 16.6004 15.9288C16.3624 15.3795 16.2431 14.7861 16.2503 14.1875V12.0625C16.2475 11.2205 16.4949 10.3967 16.9611 9.69557C17.4272 8.99441 18.0911 8.44751 18.8685 8.12424C19.646 7.80098 20.5019 7.71591 21.3278 7.87984C22.1536 8.04377 22.9122 8.44931 23.5072 9.045C23.903 9.44125 24.2166 9.91182 24.4299 10.4297C24.6433 10.9475 24.7521 11.5024 24.7503 12.0625Z" fill="#95C8C3"/>
<path d="M37.0006 10.4262C36.2571 9.68501 35.3105 9.18072 34.2806 8.97704C33.2506 8.77337 32.1834 8.87945 31.2137 9.28189C30.244 9.68433 29.4152 10.3651 28.8321 11.2382C28.249 12.1113 27.9377 13.1376 27.9375 14.1875V16.3125C27.9375 17.1723 28.1491 18.0189 28.5537 18.7775C28.738 19.1406 28.9664 19.4797 29.2338 19.7869C29.4815 20.0743 29.7593 20.3343 30.0625 20.5625C30.1868 20.6607 30.3182 20.7495 30.4556 20.8281C30.5252 20.8785 30.6 20.9212 30.6788 20.9556C31.4607 21.395 32.3425 21.6257 33.2394 21.6257C34.1363 21.6257 35.0181 21.395 35.8 20.9556L36.0231 20.8281C36.1679 20.7504 36.3064 20.6616 36.4375 20.5625C36.7444 20.3349 37.0258 20.0748 37.2769 19.7869C37.5442 19.4797 37.7726 19.1406 37.9569 18.7775C38.3578 18.0179 38.5658 17.1714 38.5625 16.3125V14.1875C38.5624 13.4886 38.4243 12.7967 38.1563 12.1513C37.8883 11.5058 37.4956 10.9196 37.0006 10.4262ZM30.0625 14.1875C30.0625 13.3421 30.3983 12.5314 30.9961 11.9336C31.5939 11.3358 32.4046 11 33.25 11C34.0954 11 34.9061 11.3358 35.5039 11.9336C36.1017 12.5314 36.4375 13.3421 36.4375 14.1875V16.3125C36.4375 17.1579 36.1017 17.9686 35.5039 18.5664C34.9061 19.1642 34.0954 19.5 33.25 19.5C32.4046 19.5 31.5939 19.1642 30.9961 18.5664C30.3983 17.9686 30.0625 17.1579 30.0625 16.3125V14.1875Z" fill="white"/>
<path d="M36.4375 14.1875V16.3125C36.4375 17.1579 36.1017 17.9686 35.5039 18.5664C34.9061 19.1642 34.0954 19.5 33.25 19.5C32.4046 19.5 31.5939 19.1642 30.9961 18.5664C30.3983 17.9686 30.0625 17.1579 30.0625 16.3125V14.1875C30.0625 13.3421 30.3983 12.5314 30.9961 11.9336C31.5939 11.3358 32.4046 11 33.25 11C34.0954 11 34.9061 11.3358 35.5039 11.9336C36.1017 12.5314 36.4375 13.3421 36.4375 14.1875Z" fill="#95C8C3"/>
<path d="M37.9465 18.7775C37.6132 18.5351 37.2574 18.3252 36.884 18.1506C36.672 18.0433 36.4302 18.01 36.1972 18.0563C35.9641 18.1025 35.7533 18.2255 35.5984 18.4056C35.2992 18.7483 34.9301 19.0231 34.5159 19.2113C34.1017 19.3995 33.6521 19.4969 33.1971 19.4969C32.7422 19.4969 32.2925 19.3995 31.8783 19.2113C31.4641 19.0231 31.0951 18.7483 30.7959 18.4056C30.6409 18.2255 30.4301 18.1025 30.1971 18.0563C29.964 18.01 29.7222 18.0433 29.5102 18.1506C29.1397 18.3305 28.7844 18.5401 28.4477 18.7775C27.7166 19.3282 27.1056 20.0224 26.6521 20.8175C26.5589 20.979 26.5098 21.1622 26.5098 21.3487C26.5098 21.5353 26.5589 21.7185 26.6521 21.88C27.4553 23.0606 27.9016 24.4475 27.9377 25.875V28C27.9377 28.2818 28.0497 28.552 28.2489 28.7513C28.4482 28.9506 28.7184 29.0625 29.0002 29.0625H39.6252C39.907 29.0625 40.1773 28.9506 40.3765 28.7513C40.5758 28.552 40.6877 28.2818 40.6877 28V24.2812C40.6952 23.213 40.451 22.1581 39.9747 21.2018C39.4984 20.2456 38.8036 19.4151 37.9465 18.7775ZM38.5627 26.9375H30.0627V25.875C30.0632 24.3036 29.6764 22.7563 28.9365 21.37C29.2039 21.0098 29.5266 20.6942 29.8927 20.435C29.947 20.4807 30.0037 20.5232 30.0627 20.5625C30.187 20.6607 30.3184 20.7495 30.4559 20.8281C30.5255 20.8785 30.6003 20.9212 30.679 20.9556C31.4708 21.3638 32.3488 21.5767 33.2396 21.5767C34.1305 21.5767 35.0084 21.3638 35.8002 20.9556L36.0234 20.8281C36.1681 20.7504 36.3067 20.6616 36.4377 20.5625L36.6184 20.4244C37.2249 20.8672 37.7175 21.4478 38.0555 22.1184C38.3936 22.789 38.5674 23.5303 38.5627 24.2812V26.9375Z" fill="white"/>
<path d="M38.5628 24.2813V26.9375H30.0628V25.875C30.0632 24.3036 29.6764 22.7563 28.9365 21.37C29.2039 21.0098 29.5267 20.6942 29.8928 20.435C29.947 20.4807 30.0037 20.5232 30.0628 20.5625C30.187 20.6607 30.3184 20.7495 30.4559 20.8281C30.5255 20.8785 30.6003 20.9212 30.679 20.9556C31.4609 21.395 32.3428 21.6257 33.2396 21.6257C34.1365 21.6257 35.0184 21.395 35.8003 20.9556L36.0234 20.8281C36.1682 20.7504 36.3067 20.6616 36.4378 20.5625L36.6184 20.4244C37.2249 20.8672 37.7175 21.4478 38.0556 22.1184C38.3936 22.789 38.5675 23.5303 38.5628 24.2813Z" fill="#95C8C3"/>
<path d="M28.5963 20.7856C28.2222 20.175 27.7764 19.6114 27.2681 19.1069C26.7968 18.6341 26.2727 18.217 25.7062 17.8637C25.3156 17.6022 24.9033 17.3747 24.4738 17.1837C24.3012 17.1091 24.1119 17.0816 23.9253 17.104C23.7386 17.1264 23.5612 17.1979 23.4113 17.3113C23.3639 17.3445 23.321 17.3838 23.2838 17.4281C23.2595 17.4543 23.2307 17.4759 23.1988 17.4919L23.0606 17.5981L22.7313 17.8212L22.6037 17.885L22.4975 17.9488H22.4019L22.0938 18.0869L21.7644 18.2038C21.4998 18.2757 21.2297 18.3255 20.9569 18.3525C20.6747 18.3893 20.389 18.3893 20.1069 18.3525C19.8549 18.3322 19.6056 18.2859 19.3631 18.2144L19.0231 18.0975L18.715 17.9594H18.63C18.5467 17.9275 18.4681 17.8846 18.3963 17.8319L18.3006 17.7787L18.1731 17.6937L18.035 17.5875H17.9713L17.8438 17.4813L17.6312 17.375C17.4813 17.2616 17.3039 17.1901 17.1172 17.1677C16.9306 17.1453 16.7413 17.1728 16.5687 17.2475C14.884 18.0234 13.457 19.266 12.4569 20.8281C11.4876 22.3349 10.9612 24.0836 10.9375 25.875V30.125C10.9375 30.4068 11.0494 30.677 11.2487 30.8763C11.448 31.0756 11.7182 31.1875 12 31.1875H29C29.2818 31.1875 29.552 31.0756 29.7513 30.8763C29.9506 30.677 30.0625 30.4068 30.0625 30.125V25.875C30.0662 24.0738 29.5576 22.3088 28.5963 20.7856ZM27.9375 29.0625H13.0625V25.875C13.0662 24.4644 13.4676 23.0834 14.2206 21.8906C14.8708 20.8568 15.7694 20.0021 16.8344 19.4044L16.93 19.4575L17.1319 19.5956C17.4674 19.7992 17.8235 19.9666 18.1944 20.095L18.715 20.2756C19.0619 20.3789 19.4176 20.45 19.7775 20.4881C20.2151 20.5414 20.6574 20.5414 21.095 20.4881C21.4868 20.4532 21.8745 20.382 22.2531 20.2756L22.7419 20.095L23.2625 19.8719L23.475 19.755C23.5437 19.7249 23.6081 19.6856 23.6662 19.6381L23.8787 19.5106L24.0594 19.3937C24.7051 19.705 25.297 20.1175 25.8125 20.6156C26.2198 21.0013 26.5768 21.4368 26.875 21.9119C27.5938 23.1072 27.9619 24.4805 27.9375 25.875V29.0625Z" fill="white"/>
<path d="M27.9375 25.875V29.0625H13.0625V25.875C13.0662 24.4644 13.4676 23.0834 14.2206 21.8906C14.8708 20.8568 15.7694 20.0021 16.8344 19.4044L17.1319 19.5956C17.4674 19.7992 17.8235 19.9666 18.1944 20.095L18.715 20.2756C19.0619 20.3789 19.4176 20.45 19.7775 20.4881C20.2151 20.5414 20.6574 20.5414 21.095 20.4881C21.4868 20.4532 21.8745 20.382 22.2531 20.2756L22.7419 20.095L23.2625 19.8719L23.475 19.755C23.5437 19.7249 23.6081 19.6856 23.6662 19.6381L23.8787 19.5106L24.0594 19.3937C24.7051 19.705 25.297 20.1175 25.8125 20.6156C26.2198 21.0013 26.5768 21.4368 26.875 21.9119C27.5938 23.1072 27.9619 24.4805 27.9375 25.875Z" fill="#95C8C3"/>
<path d="M11.5006 10.4262C10.7571 9.68501 9.81055 9.18072 8.78058 8.97704C7.75062 8.77337 6.68339 8.87945 5.71368 9.28189C4.74396 9.68433 3.91523 10.3651 3.33213 11.2382C2.74904 12.1113 2.43772 13.1376 2.4375 14.1875V16.3125C2.4375 17.1723 2.64914 18.0189 3.05375 18.7775C3.23804 19.1406 3.46644 19.4797 3.73375 19.7869C3.98151 20.0743 4.25934 20.3343 4.5625 20.5625C4.68676 20.6607 4.81817 20.7495 4.95562 20.8281L5.17875 20.9556C5.96067 21.395 6.84248 21.6257 7.73937 21.6257C8.63627 21.6257 9.51808 21.395 10.3 20.9556L10.5231 20.8281C10.6679 20.7504 10.8064 20.6616 10.9375 20.5625C11.2444 20.3349 11.5258 20.0748 11.7769 19.7869C12.0442 19.4797 12.2726 19.1406 12.4569 18.7775C12.8578 18.0179 13.0658 17.1714 13.0625 16.3125V14.1875C13.0624 13.4886 12.9243 12.7967 12.6563 12.1513C12.3883 11.5058 11.9956 10.9196 11.5006 10.4262ZM4.5625 14.1875C4.5625 13.3421 4.89832 12.5314 5.4961 11.9336C6.09387 11.3358 6.90462 11 7.75 11C8.59538 11 9.40613 11.3358 10.0039 11.9336C10.6017 12.5314 10.9375 13.3421 10.9375 14.1875V16.3125C10.9375 17.1579 10.6017 17.9686 10.0039 18.5664C9.40613 19.1642 8.59538 19.5 7.75 19.5C6.90462 19.5 6.09387 19.1642 5.4961 18.5664C4.89832 17.9686 4.5625 17.1579 4.5625 16.3125V14.1875Z" fill="white"/>
<path d="M10.9375 14.1875V16.3125C10.9375 17.1579 10.6017 17.9686 10.0039 18.5664C9.40613 19.1642 8.59538 19.5 7.75 19.5C6.90462 19.5 6.09387 19.1642 5.4961 18.5664C4.89832 17.9686 4.5625 17.1579 4.5625 16.3125V14.1875C4.5625 13.3421 4.89832 12.5314 5.4961 11.9336C6.09387 11.3358 6.90462 11 7.75 11C8.59538 11 9.40613 11.3358 10.0039 11.9336C10.6017 12.5314 10.9375 13.3421 10.9375 14.1875Z" fill="#95C8C3"/>
<path d="M14.242 20.7962C13.5823 19.6618 12.608 18.7429 11.4369 18.1506C11.225 18.0433 10.9832 18.01 10.7501 18.0563C10.5171 18.1025 10.3063 18.2255 10.1513 18.4056C9.85214 18.7483 9.48305 19.0231 9.06887 19.2113C8.65469 19.3995 8.20502 19.4969 7.75007 19.4969C7.29513 19.4969 6.84546 19.3995 6.43128 19.2113C6.0171 19.0231 5.64801 18.7483 5.34882 18.4056C5.19389 18.2255 4.98306 18.1025 4.75002 18.0563C4.51697 18.01 4.27515 18.0433 4.0632 18.1506C3.70817 18.3281 3.37028 18.5379 3.05382 18.7775C2.19858 19.4168 1.5051 20.2478 1.02905 21.2036C0.552987 22.1594 0.307599 23.2135 0.312574 24.2812V28C0.312574 28.2818 0.424516 28.552 0.623773 28.7513C0.823031 28.9506 1.09328 29.0625 1.37507 29.0625H12.0001C12.2819 29.0625 12.5521 28.9506 12.7514 28.7513C12.9506 28.552 13.0626 28.2818 13.0626 28V25.875C13.0663 24.4644 13.4677 23.0834 14.2207 21.8906C14.3232 21.7273 14.3793 21.5392 14.3831 21.3464C14.3868 21.1536 14.338 20.9634 14.242 20.7962ZM10.9376 25.875V26.9375H2.43757V24.2812C2.43409 23.5294 2.60957 22.7875 2.94951 22.1168C3.28946 21.4462 3.7841 20.8661 4.39257 20.4244L4.56257 20.5625C4.68683 20.6607 4.81824 20.7495 4.9557 20.8281L5.17882 20.9556C5.97066 21.3638 6.8486 21.5767 7.73945 21.5767C8.63029 21.5767 9.50823 21.3638 10.3001 20.9556L10.5232 20.8281C10.668 20.7504 10.8065 20.6616 10.9376 20.5625L11.1182 20.4244C11.4799 20.6888 11.8019 21.0037 12.0744 21.3594C11.3345 22.75 10.9443 24.2998 10.9376 25.875Z" fill="white"/>
<path d="M12.0638 21.3594C11.3275 22.7509 10.941 24.3007 10.9376 25.875V26.9375H2.43755V24.2813C2.43407 23.5294 2.60955 22.7875 2.94949 22.1168C3.28943 21.4462 3.78408 20.8661 4.39255 20.4244L4.56255 20.5625C4.68681 20.6607 4.81822 20.7495 4.95568 20.8281L5.1788 20.9556C5.96072 21.395 6.84253 21.6257 7.73943 21.6257C8.63632 21.6257 9.51813 21.395 10.3001 20.9556L10.5232 20.8281C10.6679 20.7504 10.8065 20.6616 10.9376 20.5625L11.1182 20.4244C11.4761 20.6896 11.7945 21.0044 12.0638 21.3594Z" fill="#95C8C3"/>
<path d="M20.5002 38.625C17.9874 38.6326 15.4981 38.1416 13.1764 37.1804C10.8547 36.2193 8.74674 34.8071 6.97458 33.0256C6.87552 32.9266 6.79693 32.809 6.74332 32.6795C6.6897 32.5501 6.66211 32.4114 6.66211 32.2712C6.66211 32.1311 6.6897 31.9924 6.74332 31.863C6.79693 31.7335 6.87552 31.6159 6.97458 31.5169C7.07365 31.4178 7.19126 31.3392 7.32069 31.2856C7.45013 31.232 7.58886 31.2044 7.72896 31.2044C7.86906 31.2044 8.00779 31.232 8.13722 31.2856C8.26666 31.3392 8.38427 31.4178 8.48333 31.5169C11.6711 34.7026 15.9935 36.4921 20.5002 36.4921C25.007 36.4921 29.3293 34.7026 32.5171 31.5169C32.7172 31.3168 32.9885 31.2044 33.2715 31.2044C33.5544 31.2044 33.8258 31.3168 34.0258 31.5169C34.2259 31.7169 34.3383 31.9883 34.3383 32.2712C34.3383 32.5542 34.2259 32.8256 34.0258 33.0256C32.2537 34.8071 30.1457 36.2193 27.824 37.1804C25.5023 38.1416 23.013 38.6326 20.5002 38.625ZM7.75021 7.8125C7.61037 7.81331 7.47176 7.78651 7.34231 7.73363C7.21285 7.68076 7.09511 7.60285 6.99583 7.50437C6.89625 7.4056 6.8172 7.28809 6.76326 7.15861C6.70932 7.02914 6.68155 6.89026 6.68155 6.75C6.68155 6.60974 6.70932 6.47086 6.76326 6.34139C6.8172 6.21191 6.89625 6.0944 6.99583 5.99563C8.77183 4.21904 10.8804 2.80975 13.2012 1.84824C15.522 0.886724 18.0094 0.391834 20.5215 0.391834C23.0335 0.391834 25.521 0.886724 27.8417 1.84824C30.1625 2.80975 32.2711 4.21904 34.0471 5.99563C34.2472 6.1957 34.3596 6.46705 34.3596 6.75C34.3596 7.03295 34.2472 7.3043 34.0471 7.50437C33.847 7.70445 33.5757 7.81685 33.2927 7.81685C33.0098 7.81685 32.7384 7.70445 32.5383 7.50437C29.3505 4.31867 25.0282 2.52913 20.5215 2.52913C16.0147 2.52913 11.6924 4.31867 8.50458 7.50437C8.4053 7.60285 8.28756 7.68076 8.15811 7.73363C8.02866 7.78651 7.89004 7.81331 7.75021 7.8125Z" fill="white"/>
</svg>
