<svg width="49" height="53" viewBox="0 0 49 53" fill="none" xmlns="http://www.w3.org/2000/svg">
<path d="M10.1472 13.2308C10.1472 11.859 10.6532 10.5435 11.5539 9.57348C12.4546 8.60352 13.6761 8.05859 14.9499 8.05859H31.7594C33.0332 8.05859 34.2548 8.60352 35.1554 9.57348C36.0561 10.5435 36.5621 11.859 36.5621 13.2308V31.3333H43.7662V36.5055C43.7662 38.5631 43.0072 40.5364 41.6562 41.9914C40.3052 43.4463 38.4728 44.2637 36.5621 44.2637H26.8366C26.9167 43.8447 26.9567 43.4137 26.9567 42.9706V35.2124C26.9567 33.4977 26.3242 31.8533 25.1983 30.6408C24.0725 29.4284 22.5455 28.7472 20.9533 28.7472H10.1472V13.2308ZM36.5621 41.6776C37.8359 41.6776 39.0575 41.1327 39.9582 40.1627C40.8588 39.1928 41.3648 37.8772 41.3648 36.5055V33.9194H36.5621V41.6776ZM18.5519 15.8168C18.2335 15.8168 17.9281 15.9531 17.7029 16.1956C17.4778 16.438 17.3513 16.7669 17.3513 17.1099C17.3513 17.4528 17.4778 17.7817 17.7029 18.0242C17.9281 18.2667 18.2335 18.4029 18.5519 18.4029H28.1574C28.4758 18.4029 28.7812 18.2667 29.0064 18.0242C29.2316 17.7817 29.3581 17.4528 29.3581 17.1099C29.3581 16.7669 29.2316 16.438 29.0064 16.1956C28.7812 15.9531 28.4758 15.8168 28.1574 15.8168H18.5519ZM18.5519 23.5751C18.2335 23.5751 17.9281 23.7113 17.7029 23.9538C17.4778 24.1963 17.3513 24.5252 17.3513 24.8681C17.3513 25.211 17.4778 25.5399 17.7029 25.7824C17.9281 26.0249 18.2335 26.1611 18.5519 26.1611H28.1574C28.4758 26.1611 28.7812 26.0249 29.0064 25.7824C29.2316 25.5399 29.3581 25.211 29.3581 24.8681C29.3581 24.5252 29.2316 24.1963 29.0064 23.9538C28.7812 23.7113 28.4758 23.5751 28.1574 23.5751H18.5519ZM24.5553 35.2124C24.5553 34.1836 24.1758 33.1969 23.5003 32.4695C22.8248 31.742 21.9086 31.3333 20.9533 31.3333H6.54515C5.58983 31.3333 4.67364 31.742 3.99813 32.4695C3.32261 33.1969 2.94312 34.1836 2.94312 35.2124V42.9706C2.94312 43.9995 3.32261 44.9861 3.99813 45.7136C4.67364 46.4411 5.58983 46.8498 6.54515 46.8498H20.9533C21.9086 46.8498 22.8248 46.4411 23.5003 45.7136C24.1758 44.9861 24.5553 43.9995 24.5553 42.9706V35.2124ZM22.154 40.3846V42.9706C21.8355 42.9706 21.5301 43.1069 21.305 43.3494C21.0798 43.5919 20.9533 43.9208 20.9533 44.2637H18.5519C18.5519 43.2349 18.9314 42.2482 19.607 41.5207C20.2825 40.7933 21.1987 40.3846 22.154 40.3846ZM20.9533 33.9194C20.9533 34.2623 21.0798 34.5912 21.305 34.8337C21.5301 35.0762 21.8355 35.2124 22.154 35.2124V37.7985C21.1987 37.7985 20.2825 37.3898 19.607 36.6623C18.9314 35.9349 18.5519 34.9482 18.5519 33.9194H20.9533ZM5.34447 35.2124C5.66291 35.2124 5.96831 35.0762 6.19348 34.8337C6.41865 34.5912 6.54515 34.2623 6.54515 33.9194H8.94651C8.94651 34.9482 8.56701 35.9349 7.8915 36.6623C7.21599 37.3898 6.29979 37.7985 5.34447 37.7985V35.2124ZM6.54515 44.2637C6.54515 43.9208 6.41865 43.5919 6.19348 43.3494C5.96831 43.1069 5.66291 42.9706 5.34447 42.9706V40.3846C6.29979 40.3846 7.21599 40.7933 7.8915 41.5207C8.56701 42.2482 8.94651 43.2349 8.94651 44.2637H6.54515ZM10.1472 39.0915C10.1472 38.5821 10.2404 38.0777 10.4214 37.6071C10.6024 37.1364 10.8677 36.7088 11.2022 36.3486C11.5367 35.9884 11.9338 35.7026 12.3708 35.5077C12.8078 35.3127 13.2762 35.2124 13.7492 35.2124C14.2223 35.2124 14.6906 35.3127 15.1277 35.5077C15.5647 35.7026 15.9618 35.9884 16.2963 36.3486C16.6307 36.7088 16.8961 37.1364 17.0771 37.6071C17.2581 38.0777 17.3513 38.5821 17.3513 39.0915C17.3513 40.1203 16.9718 41.107 16.2963 41.8345C15.6207 42.562 14.7045 42.9706 13.7492 42.9706C12.7939 42.9706 11.8777 42.562 11.2022 41.8345C10.5267 41.107 10.1472 40.1203 10.1472 39.0915Z" fill="#95C8C3"/>
</svg>
