<svg width="49" height="49" viewBox="0 0 49 49" fill="none" xmlns="http://www.w3.org/2000/svg">
<path d="M34.2342 20.8077L30.332 16.9055V30.087C30.332 31.868 28.1768 32.7625 26.9161 31.5018L24.3246 28.9123C23.3241 27.9117 20.9207 27.3114 19.3178 28.9123C17.7169 30.5132 18.3172 32.9146 19.3178 33.9151L26.5279 42.7201C27.0913 43.4085 27.8006 43.9631 28.6045 44.3438C29.4085 44.7245 30.287 44.9218 31.1765 44.9214H36.3394C36.8702 44.9214 37.3792 44.7105 37.7544 44.3352C38.1297 43.96 38.3406 43.451 38.3406 42.9202V30.7133C38.3402 28.8735 37.9773 27.0517 37.2728 25.3521C36.5682 23.6524 35.5357 22.1083 34.2342 20.8077Z" fill="#95C8C3" stroke="#95C8C3" stroke-width="1.8472" stroke-linecap="round" stroke-linejoin="round"/>
<path d="M22.332 4.8988H26.3342C27.3957 4.8988 28.4137 5.32047 29.1643 6.07104C29.9148 6.82161 30.3365 7.8396 30.3365 8.90107V12.9033M22.332 4.8988C22.332 7.56631 23.9329 12.9033 30.3365 12.9033M22.332 4.8988H18.3297M30.3365 12.9033V24.9101M18.3297 4.8988H14.3275C13.266 4.8988 12.248 5.32047 11.4974 6.07104C10.7469 6.82161 10.3252 7.8396 10.3252 8.90107V12.9033M18.3297 4.8988C18.3297 7.56631 16.7288 12.9033 10.3252 12.9033M10.3252 24.9101V28.9124C10.3252 29.9739 10.7469 30.9918 11.4974 31.7424C12.248 32.493 13.266 32.9146 14.3275 32.9146H18.3297C18.3297 30.2471 16.7288 24.9101 10.3252 24.9101ZM10.3252 24.9101V12.9033" stroke="#95C8C3" stroke-width="1.8472" stroke-linecap="round" stroke-linejoin="round"/>
<path d="M18.3293 18.9066C18.3293 20.0118 19.2252 20.9078 20.3304 20.9078C21.4356 20.9078 22.3315 20.0118 22.3315 18.9066C22.3315 17.8015 21.4356 16.9055 20.3304 16.9055C19.2252 16.9055 18.3293 17.8015 18.3293 18.9066Z" stroke="#95C8C3" stroke-width="1.8472" stroke-linecap="round" stroke-linejoin="round"/>
</svg>
