<svg width="47" height="47" viewBox="0 0 47 47" fill="none" xmlns="http://www.w3.org/2000/svg">
<path d="M38.8508 15.2512L34.483 10.8834C34.6177 10.0752 34.8293 9.32481 35.0987 8.6706C35.2835 8.23245 35.3569 7.7554 35.3126 7.28197C35.2683 6.80854 35.1075 6.35343 34.8446 5.9572C34.5817 5.56097 34.2249 5.23593 33.8059 5.01105C33.387 4.78617 32.9189 4.66844 32.4434 4.66833C29.2877 4.66833 26.4977 6.18843 24.7467 8.51667H15.1259C9.27641 8.51667 4.54297 13.2501 4.54297 19.0996C4.54297 24.949 9.35338 41.2275 9.35338 41.2275H19.9363V37.3791H23.7846V41.2275H34.3675L37.6001 30.4714L43.0263 28.6627V15.2512H38.8508ZM25.7088 18.1375H16.088V14.2892H25.7088V18.1375ZM31.4813 21.9858C30.423 21.9858 29.5571 21.1199 29.5571 20.0617C29.5571 19.0034 30.423 18.1375 31.4813 18.1375C32.5396 18.1375 33.4054 19.0034 33.4054 20.0617C33.4054 21.1199 32.5396 21.9858 31.4813 21.9858Z" fill="#95C8C3"/>
</svg>
