<svg width="47" height="46" viewBox="0 0 47 46" fill="none" xmlns="http://www.w3.org/2000/svg">
<path d="M10.1994 9.99725C10.1996 9.63335 10.0944 9.27717 9.89669 8.97169C9.69895 8.6662 9.41703 8.42446 9.08496 8.27562C9.3565 8.06254 9.68461 7.91735 10.0467 7.86455L30.4083 4.95494C30.9432 4.87848 31.4883 4.91786 32.0067 5.07043C32.5251 5.223 33.0046 5.48519 33.4129 5.83924C33.8211 6.19329 34.1485 6.63094 34.3728 7.12254C34.5972 7.61414 34.7133 8.14821 34.7133 8.68859V10.2348C34.0972 10.0766 33.4636 9.99677 32.8276 9.99725H10.1994ZM19.1564 25.0827C19.1564 23.9575 19.6034 22.8783 20.3991 22.0826C21.1947 21.2869 22.2739 20.8399 23.3992 20.8399C24.5244 20.8399 25.6036 21.2869 26.3993 22.0826C27.195 22.8783 27.642 23.9575 27.642 25.0827C27.642 26.208 27.195 27.2871 26.3993 28.0828C25.6036 28.8785 24.5244 29.3255 23.3992 29.3255C22.2739 29.3255 21.1947 28.8785 20.3991 28.0828C19.6034 27.2871 19.1564 26.208 19.1564 25.0827Z" fill="#95C8C3"/>
<path fill-rule="evenodd" clip-rule="evenodd" d="M34.7133 12.2034C36.9101 12.9822 38.4846 15.0772 38.4846 17.5399V36.3967C38.4846 37.8971 37.8886 39.336 36.8277 40.3969C35.7668 41.4578 34.3279 42.0538 32.8276 42.0538H13.9708C12.4704 42.0538 11.0315 41.4578 9.97063 40.3969C8.90973 39.336 8.31372 37.8971 8.31372 36.3967V9.99719C8.31372 10.4973 8.51239 10.9769 8.86602 11.3306C9.21966 11.6842 9.69929 11.8829 10.1994 11.8829H32.8276C33.4876 11.8829 34.1231 11.996 34.7133 12.2034ZM23.3992 18.0113C21.5237 18.0113 19.7251 18.7564 18.399 20.0825C17.0729 21.4086 16.3279 23.2072 16.3279 25.0826C16.3279 26.9581 17.0729 28.7567 18.399 30.0828C19.7251 31.4089 21.5237 32.154 23.3992 32.154C25.2746 32.154 27.0732 31.4089 28.3993 30.0828C29.7255 28.7567 30.4705 26.9581 30.4705 25.0826C30.4705 23.2072 29.7255 21.4086 28.3993 20.0825C27.0732 18.7564 25.2746 18.0113 23.3992 18.0113ZM19.6278 34.9825C19.2527 34.9825 18.893 35.1315 18.6278 35.3967C18.3626 35.6619 18.2136 36.0217 18.2136 36.3967C18.2136 36.7718 18.3626 37.1315 18.6278 37.3968C18.893 37.662 19.2527 37.811 19.6278 37.811H27.1705C27.5456 37.811 27.9053 37.662 28.1706 37.3968C28.4358 37.1315 28.5848 36.7718 28.5848 36.3967C28.5848 36.0217 28.4358 35.6619 28.1706 35.3967C27.9053 35.1315 27.5456 34.9825 27.1705 34.9825H19.6278Z" fill="#95C8C3"/>
</svg>
