<svg width="49" height="49" viewBox="0 0 49 49" fill="none" xmlns="http://www.w3.org/2000/svg">
<path d="M13.3878 42.948H12.8675C10.9804 42.948 10.0379 42.948 9.45157 42.3616C8.86523 41.7793 8.86523 40.8348 8.86523 38.9477V36.7224C8.86523 35.6859 8.86523 35.1676 9.13138 34.7033C9.39754 34.241 9.79976 34.0069 10.6042 33.5386C15.8992 30.4589 23.4175 28.7259 28.4343 31.7176C28.7705 31.9197 29.0747 32.1639 29.3348 32.454C29.6036 32.7486 29.8106 33.094 29.9437 33.4698C30.0768 33.8457 30.1333 34.2444 30.1098 34.6424C30.0862 35.0405 29.9833 35.4298 29.8069 35.7874C29.6305 36.1449 29.3842 36.4636 29.0827 36.7244C28.8422 36.953 28.5485 37.1181 28.2282 37.2047C28.4683 37.1767 28.6984 37.1447 28.9186 37.1107C30.7416 36.8205 32.2725 35.8439 33.6733 34.7853L37.2913 32.0538C37.9368 31.5843 38.7144 31.3314 39.5126 31.3314C40.3107 31.3314 41.0884 31.5843 41.7338 32.0538C42.8805 32.9203 43.2327 34.3471 42.5063 35.5118C41.6598 36.8685 40.4671 38.6035 39.3225 39.6641C38.1758 40.7247 36.4688 41.6732 35.0761 42.3456C33.5312 43.092 31.8262 43.5203 30.0912 43.8024C26.5732 44.3708 22.9072 44.2827 19.4252 43.5663C17.4387 43.1579 15.4159 42.9493 13.3878 42.948Z" fill="#95C8C3"/>
<path d="M14.0404 8.42122C13.3059 9.15564 13.0318 10.1682 12.9297 11.7511C14.1028 11.735 15.2232 11.2618 16.0526 10.432C16.882 9.60231 17.3547 8.48165 17.3702 7.30859C15.7894 7.41265 14.7748 7.68681 14.0404 8.42122ZM35.7086 8.42122C34.9742 7.68681 33.9616 7.41265 32.3787 7.31059C32.3948 8.48364 32.8681 9.60409 33.6978 10.4335C34.5275 11.2628 35.6482 11.7356 36.8212 11.7511C36.7172 10.1702 36.443 9.15564 35.7086 8.42122ZM35.7086 22.085C34.9742 22.8194 33.9616 23.0935 32.3787 23.1956C32.3948 22.0225 32.8681 20.9021 33.6978 20.0727C34.5275 19.2434 35.6482 18.7706 36.8212 18.7551C36.7172 20.336 36.443 21.3505 35.7086 22.085ZM14.0404 22.085C14.7748 22.8194 15.7874 23.0935 17.3702 23.1956C17.3542 22.0225 16.8809 20.9021 16.0512 20.0727C15.2215 19.2434 14.1008 18.7706 12.9277 18.7551C13.0318 20.336 13.3059 21.3505 14.0404 22.085Z" fill="#95C8C3"/>
<path fill-rule="evenodd" clip-rule="evenodd" d="M12.8677 14.7528C14.8579 14.7528 16.7667 13.9622 18.174 12.5548C19.5813 11.1475 20.3719 9.23878 20.3719 7.24854H29.377C29.377 9.23878 30.1676 11.1475 31.575 12.5548C32.9823 13.9622 34.891 14.7528 36.8813 14.7528V15.7533C34.891 15.7533 32.9823 16.544 31.575 17.9513C30.1676 19.3586 29.377 21.2673 29.377 23.2576H20.3719C20.3719 21.2673 19.5813 19.3586 18.174 17.9513C16.7667 16.544 14.8579 15.7533 12.8677 15.7533V14.7528ZM24.8745 17.2542C25.4052 17.2542 25.9142 17.0434 26.2895 16.6681C26.6648 16.2928 26.8756 15.7838 26.8756 15.2531C26.8756 14.7223 26.6648 14.2133 26.2895 13.838C25.9142 13.4628 25.4052 13.2519 24.8745 13.2519C24.3437 13.2519 23.8347 13.4628 23.4595 13.838C23.0842 14.2133 22.8733 14.7223 22.8733 15.2531C22.8733 15.7838 23.0842 16.2928 23.4595 16.6681C23.8347 17.0434 24.3437 17.2542 24.8745 17.2542Z" fill="#95C8C3"/>
</svg>
