<svg width="36" height="36" viewBox="0 0 36 36" fill="none" xmlns="http://www.w3.org/2000/svg">
<g clip-path="url(#clip0_108_502)">
<path fill-rule="evenodd" clip-rule="evenodd" d="M25.9227 0.661911C26.1858 0.397953 26.5215 0.218178 26.8871 0.14542C27.2527 0.0726627 27.6316 0.110207 27.9758 0.253284L33.308 2.46438C33.7679 2.65425 34.1337 3.01863 34.3254 3.47771C34.5171 3.93678 34.5191 4.45312 34.3309 4.91363L32.1523 10.2458C32.0116 10.5902 31.7719 10.885 31.4635 11.093C31.1552 11.3011 30.7921 11.413 30.4201 11.4146C30.0481 11.4162 29.684 11.3075 29.3739 11.1021C29.0637 10.8967 28.8215 10.604 28.6778 10.2609L27.8179 8.20521L6.16318 17.4582C5.93603 17.5553 5.69197 17.6068 5.44494 17.6096C5.19791 17.6124 4.95274 17.5665 4.72345 17.4745C4.49415 17.3826 4.28521 17.2464 4.10856 17.0737C3.9319 16.901 3.79099 16.6952 3.69388 16.468C3.59676 16.2408 3.54533 15.9968 3.54254 15.7497C3.53974 15.5027 3.58563 15.2576 3.67758 15.0283C3.76953 14.799 3.90575 14.59 4.07845 14.4134C4.25115 14.2367 4.45695 14.0958 4.68411 13.9987L26.3664 4.73564L25.5216 2.71758C25.377 2.37379 25.338 1.99477 25.4094 1.62872C25.4808 1.26268 25.6595 0.926142 25.9227 0.661911ZM32.8242 13.8483C33.4891 13.8483 34.1267 14.1124 34.5969 14.5825C35.067 15.0527 35.3311 15.6903 35.3311 16.3552V33.9036C35.3311 34.236 35.1991 34.5548 34.964 34.7899C34.7289 35.025 34.4101 35.157 34.0777 35.157H27.8104C27.4779 35.157 27.1591 35.025 26.924 34.7899C26.689 34.5548 26.5569 34.236 26.5569 33.9036V16.3552C26.5569 15.6903 26.821 15.0527 27.2912 14.5825C27.7613 14.1124 28.399 13.8483 29.0638 13.8483H32.8242ZM22.062 18.3407C21.5916 17.8714 20.9541 17.6081 20.2896 17.6086H16.5293C15.8644 17.6086 15.2268 17.8728 14.7566 18.3429C14.2865 18.813 14.0224 19.4507 14.0224 20.1156V33.9036C14.0224 34.236 14.1544 34.5548 14.3895 34.7899C14.6246 35.025 14.9434 35.157 15.2758 35.157H21.5431C21.8755 35.157 22.1944 35.025 22.4294 34.7899C22.6645 34.5548 22.7965 34.236 22.7965 33.9036V20.1156C22.7968 19.7859 22.7321 19.4595 22.606 19.155C22.48 18.8504 22.2951 18.5737 22.062 18.3407ZM7.75507 21.369C8.41995 21.369 9.05759 21.6331 9.52773 22.1033C9.99787 22.5734 10.262 23.211 10.262 23.8759V33.9036C10.262 34.236 10.1299 34.5548 9.89486 34.7899C9.65979 35.025 9.34097 35.157 9.00853 35.157H2.74125C2.40881 35.157 2.08999 35.025 1.85492 34.7899C1.61985 34.5548 1.48779 34.236 1.48779 33.9036V23.8759C1.48779 23.211 1.75191 22.5734 2.22205 22.1033C2.69219 21.6331 3.32983 21.369 3.99471 21.369H7.75507Z" fill="#95C8C3"/>
</g>
<defs>
<clipPath id="clip0_108_502">
<rect width="35.0968" height="35.0968" fill="white" transform="translate(0.86084 0.110352)"/>
</clipPath>
</defs>
</svg>
