<svg width="20" height="21" viewBox="0 0 20 21" fill="none" xmlns="http://www.w3.org/2000/svg">
<mask id="mask0_88_3246" style="mask-type:luminance" maskUnits="userSpaceOnUse" x="2" y="2" width="16" height="17">
<path d="M2.08301 2.58301H17.9163V18.4163H2.08301V2.58301Z" fill="white"/>
</mask>
<g mask="url(#mask0_88_3246)">
<path d="M11.4913 2.69969L11.0163 2.63302C9.58878 2.4269 8.13205 2.63082 6.81595 3.22099C5.49986 3.81117 4.37864 4.76329 3.58301 5.96636C2.73647 7.11634 2.23183 8.48197 2.12716 9.9061C2.02249 11.3302 2.32204 12.755 2.99134 14.0164C3.05984 14.1428 3.10248 14.2816 3.11679 14.4246C3.1311 14.5677 3.11678 14.7122 3.07467 14.8497C2.73301 16.0247 2.41634 17.208 2.08301 18.4497L2.49967 18.3247C3.62467 18.0247 4.74967 17.7247 5.87467 17.4497C6.11213 17.4003 6.35894 17.4236 6.58301 17.5164C7.59234 18.009 8.69536 18.28 9.81805 18.3112C10.9407 18.3424 12.0571 18.1331 13.0923 17.6974C14.1274 17.2616 15.0574 16.6095 15.8198 15.7848C16.5821 14.9601 17.1593 13.9818 17.5125 12.9156C17.8656 11.8495 17.9867 10.7201 17.8675 9.60336C17.7483 8.48658 17.3916 7.40822 16.8213 6.44065C16.251 5.47308 15.4804 4.63869 14.5611 3.99346C13.6418 3.34824 12.5951 2.90711 11.4913 2.69969ZM13.5913 13.633C13.2885 13.9042 12.9191 14.0902 12.521 14.1722C12.1228 14.2542 11.71 14.2292 11.3247 14.0997C9.57848 13.608 8.06352 12.5124 7.04967 11.008C6.66241 10.476 6.35109 9.89259 6.12467 9.27469C6.00205 8.91617 5.97994 8.53092 6.06074 8.16072C6.14153 7.79052 6.32215 7.44952 6.58301 7.17469C6.71 7.01262 6.88285 6.89255 7.07905 6.83012C7.27526 6.76769 7.48571 6.7658 7.68301 6.82469C7.84968 6.86636 7.96634 7.10802 8.11634 7.29136C8.23801 7.63552 8.38051 7.97219 8.54134 8.29969C8.66336 8.46678 8.71432 8.67536 8.6831 8.87989C8.65187 9.08442 8.54099 9.26829 8.37467 9.39136C7.99967 9.72469 8.05801 9.99969 8.32467 10.3747C8.91421 11.224 9.72767 11.8932 10.6747 12.308C10.9413 12.4247 11.1413 12.4497 11.3163 12.1747C11.3913 12.0664 11.4913 11.9747 11.5747 11.8747C12.058 11.2664 11.908 11.2747 12.6747 11.608C12.9188 11.7105 13.1555 11.8305 13.383 11.9664C13.608 12.0997 13.9497 12.2414 13.9997 12.4414C14.0478 12.6583 14.0351 12.8844 13.9631 13.0946C13.891 13.3049 13.7624 13.4912 13.5913 13.633Z" fill="#171F32"/>
</g>
</svg>
